<svg xmlns="http://www.w3.org/2000/svg" xmlns:svg="http://www.w3.org/2000/svg" id="svg11270" width="500" height="300" version="1.1" viewBox="0 0 500 300"><defs id="defs11272"><marker id="marker14848" orient="auto" refX="0" refY="0" style="overflow:visible"><path id="path14850" d="M 5.77,0.0 L -2.88,5.0 L -2.88,-5.0 L 5.77,0.0 z" transform="scale(0.8)" style="fill-rule:evenodd;stroke:#000;stroke-width:1pt;stroke-opacity:1;fill:#000;fill-opacity:1"/></marker><marker style="overflow:visible" id="TriangleOutL" orient="auto" refX="0" refY="0"><path style="fill-rule:evenodd;stroke:#000;stroke-width:1pt;stroke-opacity:1;fill:#000;fill-opacity:1" id="path6163" d="M 5.77,0.0 L -2.88,5.0 L -2.88,-5.0 L 5.77,0.0 z" transform="scale(0.8)"/></marker></defs><metadata id="metadata11275"/><g id="layer1" transform="translate(0,-752.36216)"><rect id="rect11278" width="187.079" height="104.871" x="156.46" y="842.878" style="fill:none;fill-opacity:1;stroke:#000;stroke-width:2;stroke-opacity:1;stroke-miterlimit:4;stroke-dasharray:none"/><text id="text11280" x="240.857" y="959.659" xml:space="preserve" style="font-style:normal;font-weight:400;font-size:40px;line-height:125%;font-family:sans-serif;letter-spacing:0;word-spacing:0;fill:#000;fill-opacity:1;stroke:none;stroke-width:1px;stroke-linecap:butt;stroke-linejoin:miter;stroke-opacity:1"><tspan style="font-size:12.5px" id="tspan11282" x="240.857" y="959.659">Keywhiz (server)</tspan></text><g id="g12163" transform="translate(4.9313677,5.1176189)"><g id="g12154" transform="matrix(0.73316725,0,0,0.73316725,105.93536,190.35157)"><path id="path4161" d="m 121.15881,928.37909 0,33.21008 c 0,1.16584 -1.07516,2.1044 -2.41067,2.1044 l -34.639163,0 c -1.335516,0 -2.410679,-0.93856 -2.410679,-2.1044 l 0,-47.02337 c 0,-1.16584 1.075163,-2.1044 2.410679,-2.1044 l 0,0 21.132733,0" style="fill:#a8e6cf;fill-opacity:1;fill-rule:evenodd;stroke:#000;stroke-width:1.76574767;stroke-linecap:butt;stroke-linejoin:miter;stroke-miterlimit:4;stroke-dasharray:none;stroke-opacity:1"/><path id="rect3349" d="m 121.15881,928.37909 -13.50642,0 c -1.33552,0 -2.41068,-0.93856 -2.41068,-2.1044 l 0,-13.81329" style="fill:#a8e6cf;fill-opacity:1;fill-rule:evenodd;stroke:#000;stroke-width:1.74026072;stroke-linecap:butt;stroke-linejoin:miter;stroke-miterlimit:4;stroke-dasharray:none;stroke-opacity:1"/><path id="path4151" d="m 104.61014,912.20066 16.79344,16.79723" style="fill:none;fill-opacity:0;fill-rule:evenodd;stroke:#000;stroke-width:1.76574767;stroke-linecap:butt;stroke-linejoin:miter;stroke-miterlimit:4;stroke-dasharray:none;stroke-opacity:1"/></g><text style="font-style:normal;font-weight:400;font-size:25px;line-height:125%;font-family:sans-serif;letter-spacing:0;word-spacing:0;fill:#000;fill-opacity:1;stroke:none;stroke-width:1px;stroke-linecap:butt;stroke-linejoin:miter;stroke-opacity:1" id="text12159" x="168.956" y="880.188" xml:space="preserve"><tspan id="tspan12161" x="168.956" y="880.188" style="font-size:7.5px">config</tspan></text></g><g id="g15210"><path id="path12175" d="m 238.99321,910.64292 0,24.34855 c 0,0.85475 -0.78827,1.54287 -1.76742,1.54287 l -25.3963,0 c -0.97916,0 -1.76743,-0.68812 -1.76743,-1.54287 l 0,-34.476 c 0,-0.85475 0.78827,-1.54287 1.76743,-1.54287 l 0,0 15.49383,0" style="fill:#dcedc1;fill-opacity:1;fill-rule:evenodd;stroke:#000;stroke-width:1.29458833;stroke-linecap:butt;stroke-linejoin:miter;stroke-miterlimit:4;stroke-dasharray:none;stroke-opacity:1"/><path id="path12177" d="m 238.99321,910.64292 -9.90246,0 c -0.97916,0 -1.76743,-0.68812 -1.76743,-1.54287 l 0,-10.12745" style="fill:#dcedc1;fill-opacity:1;fill-rule:evenodd;stroke:#000;stroke-width:1.27590215;stroke-linecap:butt;stroke-linejoin:miter;stroke-miterlimit:4;stroke-dasharray:none;stroke-opacity:1"/><path id="path12179" d="m 226.86027,898.78143 12.3124,12.31518" style="fill:none;fill-opacity:0;fill-rule:evenodd;stroke:#000;stroke-width:1.29458833;stroke-linecap:butt;stroke-linejoin:miter;stroke-miterlimit:4;stroke-dasharray:none;stroke-opacity:1"/><text id="text12181" x="224.114" y="919.822" xml:space="preserve" style="font-style:normal;font-weight:400;font-size:25px;line-height:125%;font-family:sans-serif;letter-spacing:0;word-spacing:0;fill:#000;fill-opacity:1;stroke:none;stroke-width:1px;stroke-linecap:butt;stroke-linejoin:miter;stroke-opacity:1"><tspan style="font-size:7.5px;text-align:center;text-anchor:middle" id="tspan12183" x="224.114" y="919.822">GPG</tspan></text></g><g id="g15217"><path style="fill:#ffd3b6;fill-opacity:1;fill-rule:evenodd;stroke:#000;stroke-width:1.29458833;stroke-linecap:butt;stroke-linejoin:miter;stroke-miterlimit:4;stroke-dasharray:none;stroke-opacity:1" id="path12194" d="m 283.945,884.88403 0,24.34855 c 0,0.85475 -0.78827,1.54287 -1.76742,1.54287 l -25.3963,0 c -0.97916,0 -1.76743,-0.68812 -1.76743,-1.54287 l 0,-34.476 c 0,-0.85475 0.78827,-1.54287 1.76743,-1.54287 l 0,0 15.49383,0"/><path style="fill:#ffd3b6;fill-opacity:1;fill-rule:evenodd;stroke:#000;stroke-width:1.27590215;stroke-linecap:butt;stroke-linejoin:miter;stroke-miterlimit:4;stroke-dasharray:none;stroke-opacity:1" id="path12196" d="m 283.945,884.88403 -9.90246,0 c -0.97916,0 -1.76743,-0.68812 -1.76743,-1.54287 l 0,-10.12745"/><path style="fill:none;fill-opacity:0;fill-rule:evenodd;stroke:#000;stroke-width:1.29458833;stroke-linecap:butt;stroke-linejoin:miter;stroke-miterlimit:4;stroke-dasharray:none;stroke-opacity:1" id="path12198" d="m 271.81206,873.02254 12.3124,12.31518"/><text style="font-style:normal;font-weight:400;font-size:25px;line-height:125%;font-family:sans-serif;letter-spacing:0;word-spacing:0;fill:#000;fill-opacity:1;stroke:none;stroke-width:1px;stroke-linecap:butt;stroke-linejoin:miter;stroke-opacity:1" id="text12200" x="269.066" y="894.063" xml:space="preserve"><tspan id="tspan12202" x="269.066" y="894.063" style="font-size:7.5px;text-align:center;text-anchor:middle">TLS</tspan></text></g><g id="g15224"><path id="path12204" d="m 328.89679,901.55155 0,24.34855 c 0,0.85475 -0.78827,1.54287 -1.76742,1.54287 l -25.3963,0 c -0.97916,0 -1.76743,-0.68812 -1.76743,-1.54287 l 0,-34.476 c 0,-0.85475 0.78827,-1.54287 1.76743,-1.54287 l 0,0 15.49383,0" style="fill:#ffaaa5;fill-opacity:1;fill-rule:evenodd;stroke:#000;stroke-width:1.29458833;stroke-linecap:butt;stroke-linejoin:miter;stroke-miterlimit:4;stroke-dasharray:none;stroke-opacity:1"/><path id="path12206" d="m 328.89679,901.55155 -9.90246,0 c -0.97916,0 -1.76743,-0.68812 -1.76743,-1.54287 l 0,-10.12745" style="fill:#ffaaa5;fill-opacity:1;fill-rule:evenodd;stroke:#000;stroke-width:1.27590215;stroke-linecap:butt;stroke-linejoin:miter;stroke-miterlimit:4;stroke-dasharray:none;stroke-opacity:1"/><path id="path12208" d="m 316.76385,889.69006 12.3124,12.31518" style="fill:none;fill-opacity:0;fill-rule:evenodd;stroke:#000;stroke-width:1.29458833;stroke-linecap:butt;stroke-linejoin:miter;stroke-miterlimit:4;stroke-dasharray:none;stroke-opacity:1"/><text id="text12210" x="314.017" y="910.73" xml:space="preserve" style="font-style:normal;font-weight:400;font-size:25px;line-height:125%;font-family:sans-serif;letter-spacing:0;word-spacing:0;fill:#000;fill-opacity:1;stroke:none;stroke-width:1px;stroke-linecap:butt;stroke-linejoin:miter;stroke-opacity:1"><tspan style="font-size:7.5px;text-align:center;text-anchor:middle" id="tspan12212" x="314.017" y="910.73">etc...</tspan></text></g><rect style="fill:none;fill-opacity:1;stroke:#000;stroke-width:1;stroke-miterlimit:4;stroke-dasharray:none;stroke-opacity:1" id="rect13038" width="16.266" height="9.118" x="169.136" y="993.635"/><rect id="rect13580" width="16.266" height="9.118" x="190.349" y="1001.212" style="fill:none;fill-opacity:1;stroke:#000;stroke-width:1;stroke-miterlimit:4;stroke-dasharray:none;stroke-opacity:1"/><rect style="fill:none;fill-opacity:1;stroke:#000;stroke-width:1;stroke-miterlimit:4;stroke-dasharray:none;stroke-opacity:1" id="rect13582" width="16.266" height="9.118" x="197.42" y="988.585"/><rect id="rect13584" width="16.266" height="9.118" x="212.067" y="1006.263" style="fill:none;fill-opacity:1;stroke:#000;stroke-width:1;stroke-miterlimit:4;stroke-dasharray:none;stroke-opacity:1"/><rect style="fill:none;fill-opacity:1;stroke:#000;stroke-width:1;stroke-miterlimit:4;stroke-dasharray:none;stroke-opacity:1" id="rect13586" width="16.266" height="9.118" x="219.643" y="991.615"/><rect id="rect13588" width="16.266" height="9.118" x="174.692" y="1013.334" style="fill:none;fill-opacity:1;stroke:#000;stroke-width:1;stroke-miterlimit:4;stroke-dasharray:none;stroke-opacity:1"/><rect id="rect13590" width="16.266" height="9.118" x="269.141" y="992.625" style="fill:none;fill-opacity:1;stroke:#000;stroke-width:1;stroke-miterlimit:4;stroke-dasharray:none;stroke-opacity:1"/><rect style="fill:none;fill-opacity:1;stroke:#000;stroke-width:1;stroke-miterlimit:4;stroke-dasharray:none;stroke-opacity:1" id="rect13592" width="16.266" height="9.118" x="290.354" y="1000.202"/><rect id="rect13594" width="16.266" height="9.118" x="297.425" y="987.575" style="fill:none;fill-opacity:1;stroke:#000;stroke-width:1;stroke-miterlimit:4;stroke-dasharray:none;stroke-opacity:1"/><rect style="fill:none;fill-opacity:1;stroke:#000;stroke-width:1;stroke-miterlimit:4;stroke-dasharray:none;stroke-opacity:1" id="rect13596" width="16.266" height="9.118" x="312.072" y="1005.252"/><rect id="rect13598" width="16.266" height="9.118" x="319.649" y="990.605" style="fill:none;fill-opacity:1;stroke:#000;stroke-width:1;stroke-miterlimit:4;stroke-dasharray:none;stroke-opacity:1"/><rect style="fill:none;fill-opacity:1;stroke:#000;stroke-width:1;stroke-miterlimit:4;stroke-dasharray:none;stroke-opacity:1" id="rect13600" width="16.266" height="9.118" x="274.697" y="1012.323"/><text style="font-style:normal;font-weight:400;font-size:40px;line-height:125%;font-family:sans-serif;letter-spacing:0;word-spacing:0;fill:#000;fill-opacity:1;stroke:none;stroke-width:1px;stroke-linecap:butt;stroke-linejoin:miter;stroke-opacity:1" id="text13608" x="240.857" y="1034.915" xml:space="preserve"><tspan id="tspan13610" x="240.857" y="1034.915" style="font-size:12.5px">Keywhiz (clients)</tspan></text><path id="path13612" d="m 226.27415,951.85198 c 7.57616,11.61675 2.52538,20.203 -6.06091,29.79947" style="fill:none;fill-rule:evenodd;stroke:#000;stroke-width:1px;stroke-linecap:butt;stroke-linejoin:miter;stroke-opacity:1;marker-end:url(#TriangleOutL)"/><path style="fill:none;fill-rule:evenodd;stroke:#000;stroke-width:1px;stroke-linecap:butt;stroke-linejoin:miter;stroke-opacity:1;marker-end:url(#marker14848)" id="path14846" d="m 226.27415,951.85198 c 7.57616,11.61675 24.74874,23.73853 39.90103,29.79947"/><g id="g15233" transform="matrix(0.07276915,0,0,0.07276915,174.77683,929.90929)"><path id="path15235" d="m 121.15881,928.37909 0,33.21008 c 0,1.16584 -1.07516,2.1044 -2.41067,2.1044 l -34.639163,0 c -1.335516,0 -2.410679,-0.93856 -2.410679,-2.1044 l 0,-47.02337 c 0,-1.16584 1.075163,-2.1044 2.410679,-2.1044 l 0,0 21.132733,0" style="fill:#a8e6cf;fill-opacity:1;fill-rule:evenodd;stroke:#000;stroke-width:1.76574767;stroke-linecap:butt;stroke-linejoin:miter;stroke-miterlimit:4;stroke-dasharray:none;stroke-opacity:1"/><path id="path15237" d="m 121.15881,928.37909 -13.50642,0 c -1.33552,0 -2.41068,-0.93856 -2.41068,-2.1044 l 0,-13.81329" style="fill:#a8e6cf;fill-opacity:1;fill-rule:evenodd;stroke:#000;stroke-width:1.74026072;stroke-linecap:butt;stroke-linejoin:miter;stroke-miterlimit:4;stroke-dasharray:none;stroke-opacity:1"/><path id="path15239" d="m 104.61014,912.20066 16.79344,16.79723" style="fill:none;fill-opacity:0;fill-rule:evenodd;stroke:#000;stroke-width:1.76574767;stroke-linecap:butt;stroke-linejoin:miter;stroke-miterlimit:4;stroke-dasharray:none;stroke-opacity:1"/></g><g id="g15296" transform="matrix(0.09925316,0,0,0.09925316,159.4901,900.19524)"><path style="fill:#dcedc1;fill-opacity:1;fill-rule:evenodd;stroke:#000;stroke-width:1.29458833;stroke-linecap:butt;stroke-linejoin:miter;stroke-miterlimit:4;stroke-dasharray:none;stroke-opacity:1" id="path15247" d="m 207.74321,980.28578 0,24.34852 c 0,0.8548 -0.78827,1.5429 -1.76742,1.5429 l -25.3963,0 c -0.97916,0 -1.76743,-0.6881 -1.76743,-1.5429 l 0,-34.47597 c 0,-0.85475 0.78827,-1.54287 1.76743,-1.54287 l 0,0 15.49383,0"/><path style="fill:#dcedc1;fill-opacity:1;fill-rule:evenodd;stroke:#000;stroke-width:1.27590215;stroke-linecap:butt;stroke-linejoin:miter;stroke-miterlimit:4;stroke-dasharray:none;stroke-opacity:1" id="path15249" d="m 207.74321,980.28578 -9.90246,0 c -0.97916,0 -1.76743,-0.68812 -1.76743,-1.54287 l 0,-10.12745"/><path style="fill:none;fill-opacity:0;fill-rule:evenodd;stroke:#000;stroke-width:1.29458833;stroke-linecap:butt;stroke-linejoin:miter;stroke-miterlimit:4;stroke-dasharray:none;stroke-opacity:1" id="path15251" d="m 195.61027,968.42429 12.3124,12.31518"/></g><g id="g15257" transform="translate(-75.139861,95.826324)"><g id="g15286" transform="matrix(0.09925316,0,0,0.09925316,223.58416,813.8183)"><path style="fill:#ffd3b6;fill-opacity:1;fill-rule:evenodd;stroke:#000;stroke-width:1.29458833;stroke-linecap:butt;stroke-linejoin:miter;stroke-miterlimit:4;stroke-dasharray:none;stroke-opacity:1" id="path15259" d="m 283.945,884.88403 0,24.34855 c 0,0.85475 -0.78827,1.54287 -1.76742,1.54287 l -25.3963,0 c -0.97916,0 -1.76743,-0.68812 -1.76743,-1.54287 l 0,-34.476 c 0,-0.85475 0.78827,-1.54287 1.76743,-1.54287 l 0,0 15.49383,0"/><path style="fill:#ffd3b6;fill-opacity:1;fill-rule:evenodd;stroke:#000;stroke-width:1.27590215;stroke-linecap:butt;stroke-linejoin:miter;stroke-miterlimit:4;stroke-dasharray:none;stroke-opacity:1" id="path15261" d="m 283.945,884.88403 -9.90246,0 c -0.97916,0 -1.76743,-0.68812 -1.76743,-1.54287 l 0,-10.12745"/><path style="fill:none;fill-opacity:0;fill-rule:evenodd;stroke:#000;stroke-width:1.29458833;stroke-linecap:butt;stroke-linejoin:miter;stroke-miterlimit:4;stroke-dasharray:none;stroke-opacity:1" id="path15263" d="m 271.81206,873.02254 12.3124,12.31518"/></g></g><g id="g15269" transform="translate(-128.97095,71.950055)"><g id="g15281" transform="matrix(0.09925316,0,0,0.09925316,269.61005,835.97437)"><path id="path15271" d="m 328.89679,901.55155 0,24.34855 c 0,0.85475 -0.78827,1.54287 -1.76742,1.54287 l -25.3963,0 c -0.97916,0 -1.76743,-0.68812 -1.76743,-1.54287 l 0,-34.476 c 0,-0.85475 0.78827,-1.54287 1.76743,-1.54287 l 0,0 15.49383,0" style="fill:#ffaaa5;fill-opacity:1;fill-rule:evenodd;stroke:#000;stroke-width:1.29458833;stroke-linecap:butt;stroke-linejoin:miter;stroke-miterlimit:4;stroke-dasharray:none;stroke-opacity:1"/><path id="path15273" d="m 328.89679,901.55155 -9.90246,0 c -0.97916,0 -1.76743,-0.68812 -1.76743,-1.54287 l 0,-10.12745" style="fill:#ffaaa5;fill-opacity:1;fill-rule:evenodd;stroke:#000;stroke-width:1.27590215;stroke-linecap:butt;stroke-linejoin:miter;stroke-miterlimit:4;stroke-dasharray:none;stroke-opacity:1"/><path id="path15275" d="m 316.76385,889.69006 12.3124,12.31518" style="fill:none;fill-opacity:0;fill-rule:evenodd;stroke:#000;stroke-width:1.29458833;stroke-linecap:butt;stroke-linejoin:miter;stroke-miterlimit:4;stroke-dasharray:none;stroke-opacity:1"/></g></g><g id="g15307" transform="translate(-50.264855,90.90183)"><g id="g15309" transform="matrix(0.09925316,0,0,0.09925316,223.58416,813.8183)"><path id="path15311" d="m 283.945,884.88403 0,24.34855 c 0,0.85475 -0.78827,1.54287 -1.76742,1.54287 l -25.3963,0 c -0.97916,0 -1.76743,-0.68812 -1.76743,-1.54287 l 0,-34.476 c 0,-0.85475 0.78827,-1.54287 1.76743,-1.54287 l 0,0 15.49383,0" style="fill:#ffd3b6;fill-opacity:1;fill-rule:evenodd;stroke:#000;stroke-width:1.29458833;stroke-linecap:butt;stroke-linejoin:miter;stroke-miterlimit:4;stroke-dasharray:none;stroke-opacity:1"/><path id="path15313" d="m 283.945,884.88403 -9.90246,0 c -0.97916,0 -1.76743,-0.68812 -1.76743,-1.54287 l 0,-10.12745" style="fill:#ffd3b6;fill-opacity:1;fill-rule:evenodd;stroke:#000;stroke-width:1.27590215;stroke-linecap:butt;stroke-linejoin:miter;stroke-miterlimit:4;stroke-dasharray:none;stroke-opacity:1"/><path id="path15315" d="m 271.81206,873.02254 12.3124,12.31518" style="fill:none;fill-opacity:0;fill-rule:evenodd;stroke:#000;stroke-width:1.29458833;stroke-linecap:butt;stroke-linejoin:miter;stroke-miterlimit:4;stroke-dasharray:none;stroke-opacity:1"/></g></g><g id="g15321" transform="matrix(0.07276915,0,0,0.07276915,196.24257,925.04793)"><path style="fill:#a8e6cf;fill-opacity:1;fill-rule:evenodd;stroke:#000;stroke-width:1.76574767;stroke-linecap:butt;stroke-linejoin:miter;stroke-miterlimit:4;stroke-dasharray:none;stroke-opacity:1" id="path15323" d="m 121.15881,928.37909 0,33.21008 c 0,1.16584 -1.07516,2.1044 -2.41067,2.1044 l -34.639163,0 c -1.335516,0 -2.410679,-0.93856 -2.410679,-2.1044 l 0,-47.02337 c 0,-1.16584 1.075163,-2.1044 2.410679,-2.1044 l 0,0 21.132733,0"/><path style="fill:#a8e6cf;fill-opacity:1;fill-rule:evenodd;stroke:#000;stroke-width:1.74026072;stroke-linecap:butt;stroke-linejoin:miter;stroke-miterlimit:4;stroke-dasharray:none;stroke-opacity:1" id="path15325" d="m 121.15881,928.37909 -13.50642,0 c -1.33552,0 -2.41068,-0.93856 -2.41068,-2.1044 l 0,-13.81329"/><path style="fill:none;fill-opacity:0;fill-rule:evenodd;stroke:#000;stroke-width:1.76574767;stroke-linecap:butt;stroke-linejoin:miter;stroke-miterlimit:4;stroke-dasharray:none;stroke-opacity:1" id="path15327" d="m 104.61014,912.20066 16.79344,16.79723"/></g><g id="g15329" transform="matrix(0.09925316,0,0,0.09925316,173.88477,907.77138)"><path id="path15331" d="m 207.74321,980.28578 0,24.34852 c 0,0.8548 -0.78827,1.5429 -1.76742,1.5429 l -25.3963,0 c -0.97916,0 -1.76743,-0.6881 -1.76743,-1.5429 l 0,-34.47597 c 0,-0.85475 0.78827,-1.54287 1.76743,-1.54287 l 0,0 15.49383,0" style="fill:#dcedc1;fill-opacity:1;fill-rule:evenodd;stroke:#000;stroke-width:1.29458833;stroke-linecap:butt;stroke-linejoin:miter;stroke-miterlimit:4;stroke-dasharray:none;stroke-opacity:1"/><path id="path15333" d="m 207.74321,980.28578 -9.90246,0 c -0.97916,0 -1.76743,-0.68812 -1.76743,-1.54287 l 0,-10.12745" style="fill:#dcedc1;fill-opacity:1;fill-rule:evenodd;stroke:#000;stroke-width:1.27590215;stroke-linecap:butt;stroke-linejoin:miter;stroke-miterlimit:4;stroke-dasharray:none;stroke-opacity:1"/><path id="path15335" d="m 195.61027,968.42429 12.3124,12.31518" style="fill:none;fill-opacity:0;fill-rule:evenodd;stroke:#000;stroke-width:1.29458833;stroke-linecap:butt;stroke-linejoin:miter;stroke-miterlimit:4;stroke-dasharray:none;stroke-opacity:1"/></g><g id="g15337" transform="translate(-123.47825,91.837433)"><g id="g15339" transform="matrix(0.09925316,0,0,0.09925316,269.61005,835.97437)"><path style="fill:#ffaaa5;fill-opacity:1;fill-rule:evenodd;stroke:#000;stroke-width:1.29458833;stroke-linecap:butt;stroke-linejoin:miter;stroke-miterlimit:4;stroke-dasharray:none;stroke-opacity:1" id="path15341" d="m 328.89679,901.55155 0,24.34855 c 0,0.85475 -0.78827,1.54287 -1.76742,1.54287 l -25.3963,0 c -0.97916,0 -1.76743,-0.68812 -1.76743,-1.54287 l 0,-34.476 c 0,-0.85475 0.78827,-1.54287 1.76743,-1.54287 l 0,0 15.49383,0"/><path style="fill:#ffaaa5;fill-opacity:1;fill-rule:evenodd;stroke:#000;stroke-width:1.27590215;stroke-linecap:butt;stroke-linejoin:miter;stroke-miterlimit:4;stroke-dasharray:none;stroke-opacity:1" id="path15343" d="m 328.89679,901.55155 -9.90246,0 c -0.97916,0 -1.76743,-0.68812 -1.76743,-1.54287 l 0,-10.12745"/><path style="fill:none;fill-opacity:0;fill-rule:evenodd;stroke:#000;stroke-width:1.29458833;stroke-linecap:butt;stroke-linejoin:miter;stroke-miterlimit:4;stroke-dasharray:none;stroke-opacity:1" id="path15345" d="m 316.76385,889.69006 12.3124,12.31518"/></g></g><g id="g15347" transform="translate(-69.584022,115.7137)"><g id="g15349" transform="matrix(0.09925316,0,0,0.09925316,223.58416,813.8183)"><path id="path15351" d="m 283.945,884.88403 0,24.34855 c 0,0.85475 -0.78827,1.54287 -1.76742,1.54287 l -25.3963,0 c -0.97916,0 -1.76743,-0.68812 -1.76743,-1.54287 l 0,-34.476 c 0,-0.85475 0.78827,-1.54287 1.76743,-1.54287 l 0,0 15.49383,0" style="fill:#ffd3b6;fill-opacity:1;fill-rule:evenodd;stroke:#000;stroke-width:1.29458833;stroke-linecap:butt;stroke-linejoin:miter;stroke-miterlimit:4;stroke-dasharray:none;stroke-opacity:1"/><path id="path15353" d="m 283.945,884.88403 -9.90246,0 c -0.97916,0 -1.76743,-0.68812 -1.76743,-1.54287 l 0,-10.12745" style="fill:#ffd3b6;fill-opacity:1;fill-rule:evenodd;stroke:#000;stroke-width:1.27590215;stroke-linecap:butt;stroke-linejoin:miter;stroke-miterlimit:4;stroke-dasharray:none;stroke-opacity:1"/><path id="path15355" d="m 271.81206,873.02254 12.3124,12.31518" style="fill:none;fill-opacity:0;fill-rule:evenodd;stroke:#000;stroke-width:1.29458833;stroke-linecap:butt;stroke-linejoin:miter;stroke-miterlimit:4;stroke-dasharray:none;stroke-opacity:1"/></g></g><g id="g15361" transform="matrix(0.07276915,0,0,0.07276915,207.35425,942.5362)"><path style="fill:#a8e6cf;fill-opacity:1;fill-rule:evenodd;stroke:#000;stroke-width:1.76574767;stroke-linecap:butt;stroke-linejoin:miter;stroke-miterlimit:4;stroke-dasharray:none;stroke-opacity:1" id="path15363" d="m 121.15881,928.37909 0,33.21008 c 0,1.16584 -1.07516,2.1044 -2.41067,2.1044 l -34.639163,0 c -1.335516,0 -2.410679,-0.93856 -2.410679,-2.1044 l 0,-47.02337 c 0,-1.16584 1.075163,-2.1044 2.410679,-2.1044 l 0,0 21.132733,0"/><path style="fill:#a8e6cf;fill-opacity:1;fill-rule:evenodd;stroke:#000;stroke-width:1.74026072;stroke-linecap:butt;stroke-linejoin:miter;stroke-miterlimit:4;stroke-dasharray:none;stroke-opacity:1" id="path15365" d="m 121.15881,928.37909 -13.50642,0 c -1.33552,0 -2.41068,-0.93856 -2.41068,-2.1044 l 0,-13.81329"/><path style="fill:none;fill-opacity:0;fill-rule:evenodd;stroke:#000;stroke-width:1.76574767;stroke-linecap:butt;stroke-linejoin:miter;stroke-miterlimit:4;stroke-dasharray:none;stroke-opacity:1" id="path15367" d="m 104.61014,912.20066 16.79344,16.79723"/></g><g id="g15369" transform="matrix(0.07276915,0,0,0.07276915,222.56968,927.76272)"><path style="fill:#a8e6cf;fill-opacity:1;fill-rule:evenodd;stroke:#000;stroke-width:1.76574767;stroke-linecap:butt;stroke-linejoin:miter;stroke-miterlimit:4;stroke-dasharray:none;stroke-opacity:1" id="path15371" d="m 121.15881,928.37909 0,33.21008 c 0,1.16584 -1.07516,2.1044 -2.41067,2.1044 l -34.639163,0 c -1.335516,0 -2.410679,-0.93856 -2.410679,-2.1044 l 0,-47.02337 c 0,-1.16584 1.075163,-2.1044 2.410679,-2.1044 l 0,0 21.132733,0"/><path style="fill:#a8e6cf;fill-opacity:1;fill-rule:evenodd;stroke:#000;stroke-width:1.74026072;stroke-linecap:butt;stroke-linejoin:miter;stroke-miterlimit:4;stroke-dasharray:none;stroke-opacity:1" id="path15373" d="m 121.15881,928.37909 -13.50642,0 c -1.33552,0 -2.41068,-0.93856 -2.41068,-2.1044 l 0,-13.81329"/><path style="fill:none;fill-opacity:0;fill-rule:evenodd;stroke:#000;stroke-width:1.76574767;stroke-linecap:butt;stroke-linejoin:miter;stroke-miterlimit:4;stroke-dasharray:none;stroke-opacity:1" id="path15375" d="m 104.61014,912.20066 16.79344,16.79723"/></g><g id="g15377" transform="matrix(0.09925316,0,0,0.09925316,207.03041,898.04867)"><path id="path15379" d="m 207.74321,980.28578 0,24.34852 c 0,0.8548 -0.78827,1.5429 -1.76742,1.5429 l -25.3963,0 c -0.97916,0 -1.76743,-0.6881 -1.76743,-1.5429 l 0,-34.47597 c 0,-0.85475 0.78827,-1.54287 1.76743,-1.54287 l 0,0 15.49383,0" style="fill:#dcedc1;fill-opacity:1;fill-rule:evenodd;stroke:#000;stroke-width:1.29458833;stroke-linecap:butt;stroke-linejoin:miter;stroke-miterlimit:4;stroke-dasharray:none;stroke-opacity:1"/><path id="path15381" d="m 207.74321,980.28578 -9.90246,0 c -0.97916,0 -1.76743,-0.68812 -1.76743,-1.54287 l 0,-10.12745" style="fill:#dcedc1;fill-opacity:1;fill-rule:evenodd;stroke:#000;stroke-width:1.27590215;stroke-linecap:butt;stroke-linejoin:miter;stroke-miterlimit:4;stroke-dasharray:none;stroke-opacity:1"/><path id="path15383" d="m 195.61027,968.42429 12.3124,12.31518" style="fill:none;fill-opacity:0;fill-rule:evenodd;stroke:#000;stroke-width:1.29458833;stroke-linecap:butt;stroke-linejoin:miter;stroke-miterlimit:4;stroke-dasharray:none;stroke-opacity:1"/></g><g id="g15385" transform="translate(-78.21078,69.866615)"><g id="g15387" transform="matrix(0.09925316,0,0,0.09925316,269.61005,835.97437)"><path style="fill:#ffaaa5;fill-opacity:1;fill-rule:evenodd;stroke:#000;stroke-width:1.29458833;stroke-linecap:butt;stroke-linejoin:miter;stroke-miterlimit:4;stroke-dasharray:none;stroke-opacity:1" id="path15389" d="m 328.89679,901.55155 0,24.34855 c 0,0.85475 -0.78827,1.54287 -1.76742,1.54287 l -25.3963,0 c -0.97916,0 -1.76743,-0.68812 -1.76743,-1.54287 l 0,-34.476 c 0,-0.85475 0.78827,-1.54287 1.76743,-1.54287 l 0,0 15.49383,0"/><path style="fill:#ffaaa5;fill-opacity:1;fill-rule:evenodd;stroke:#000;stroke-width:1.27590215;stroke-linecap:butt;stroke-linejoin:miter;stroke-miterlimit:4;stroke-dasharray:none;stroke-opacity:1" id="path15391" d="m 328.89679,901.55155 -9.90246,0 c -0.97916,0 -1.76743,-0.68812 -1.76743,-1.54287 l 0,-10.12745"/><path style="fill:none;fill-opacity:0;fill-rule:evenodd;stroke:#000;stroke-width:1.29458833;stroke-linecap:butt;stroke-linejoin:miter;stroke-miterlimit:4;stroke-dasharray:none;stroke-opacity:1" id="path15393" d="m 316.76385,889.69006 12.3124,12.31518"/></g></g><g id="g15395" transform="matrix(0.07276915,0,0,0.07276915,325.13398,927.05215)"><path style="fill:#a8e6cf;fill-opacity:1;fill-rule:evenodd;stroke:#000;stroke-width:1.76574767;stroke-linecap:butt;stroke-linejoin:miter;stroke-miterlimit:4;stroke-dasharray:none;stroke-opacity:1" id="path15397" d="m 121.15881,928.37909 0,33.21008 c 0,1.16584 -1.07516,2.1044 -2.41067,2.1044 l -34.639163,0 c -1.335516,0 -2.410679,-0.93856 -2.410679,-2.1044 l 0,-47.02337 c 0,-1.16584 1.075163,-2.1044 2.410679,-2.1044 l 0,0 21.132733,0"/><path style="fill:#a8e6cf;fill-opacity:1;fill-rule:evenodd;stroke:#000;stroke-width:1.74026072;stroke-linecap:butt;stroke-linejoin:miter;stroke-miterlimit:4;stroke-dasharray:none;stroke-opacity:1" id="path15399" d="m 121.15881,928.37909 -13.50642,0 c -1.33552,0 -2.41068,-0.93856 -2.41068,-2.1044 l 0,-13.81329"/><path style="fill:none;fill-opacity:0;fill-rule:evenodd;stroke:#000;stroke-width:1.76574767;stroke-linecap:butt;stroke-linejoin:miter;stroke-miterlimit:4;stroke-dasharray:none;stroke-opacity:1" id="path15401" d="m 104.61014,912.20066 16.79344,16.79723"/></g><g id="g15403" transform="matrix(0.09925316,0,0,0.09925316,309.84725,897.3381)"><path id="path15405" d="m 207.74321,980.28578 0,24.34852 c 0,0.8548 -0.78827,1.5429 -1.76742,1.5429 l -25.3963,0 c -0.97916,0 -1.76743,-0.6881 -1.76743,-1.5429 l 0,-34.47597 c 0,-0.85475 0.78827,-1.54287 1.76743,-1.54287 l 0,0 15.49383,0" style="fill:#dcedc1;fill-opacity:1;fill-rule:evenodd;stroke:#000;stroke-width:1.29458833;stroke-linecap:butt;stroke-linejoin:miter;stroke-miterlimit:4;stroke-dasharray:none;stroke-opacity:1"/><path id="path15407" d="m 207.74321,980.28578 -9.90246,0 c -0.97916,0 -1.76743,-0.68812 -1.76743,-1.54287 l 0,-10.12745" style="fill:#dcedc1;fill-opacity:1;fill-rule:evenodd;stroke:#000;stroke-width:1.27590215;stroke-linecap:butt;stroke-linejoin:miter;stroke-miterlimit:4;stroke-dasharray:none;stroke-opacity:1"/><path id="path15409" d="m 195.61027,968.42429 12.3124,12.31518" style="fill:none;fill-opacity:0;fill-rule:evenodd;stroke:#000;stroke-width:1.29458833;stroke-linecap:butt;stroke-linejoin:miter;stroke-miterlimit:4;stroke-dasharray:none;stroke-opacity:1"/></g><g id="g15411" transform="translate(75.217281,92.969181)"><g id="g15413" transform="matrix(0.09925316,0,0,0.09925316,223.58416,813.8183)"><path id="path15415" d="m 283.945,884.88403 0,24.34855 c 0,0.85475 -0.78827,1.54287 -1.76742,1.54287 l -25.3963,0 c -0.97916,0 -1.76743,-0.68812 -1.76743,-1.54287 l 0,-34.476 c 0,-0.85475 0.78827,-1.54287 1.76743,-1.54287 l 0,0 15.49383,0" style="fill:#ffd3b6;fill-opacity:1;fill-rule:evenodd;stroke:#000;stroke-width:1.29458833;stroke-linecap:butt;stroke-linejoin:miter;stroke-miterlimit:4;stroke-dasharray:none;stroke-opacity:1"/><path id="path15417" d="m 283.945,884.88403 -9.90246,0 c -0.97916,0 -1.76743,-0.68812 -1.76743,-1.54287 l 0,-10.12745" style="fill:#ffd3b6;fill-opacity:1;fill-rule:evenodd;stroke:#000;stroke-width:1.27590215;stroke-linecap:butt;stroke-linejoin:miter;stroke-miterlimit:4;stroke-dasharray:none;stroke-opacity:1"/><path id="path15419" d="m 271.81206,873.02254 12.3124,12.31518" style="fill:none;fill-opacity:0;fill-rule:evenodd;stroke:#000;stroke-width:1.29458833;stroke-linecap:butt;stroke-linejoin:miter;stroke-miterlimit:4;stroke-dasharray:none;stroke-opacity:1"/></g></g><g id="g15425" transform="translate(21.386192,69.092912)"><g id="g15427" transform="matrix(0.09925316,0,0,0.09925316,269.61005,835.97437)"><path style="fill:#ffaaa5;fill-opacity:1;fill-rule:evenodd;stroke:#000;stroke-width:1.29458833;stroke-linecap:butt;stroke-linejoin:miter;stroke-miterlimit:4;stroke-dasharray:none;stroke-opacity:1" id="path15429" d="m 328.89679,901.55155 0,24.34855 c 0,0.85475 -0.78827,1.54287 -1.76742,1.54287 l -25.3963,0 c -0.97916,0 -1.76743,-0.68812 -1.76743,-1.54287 l 0,-34.476 c 0,-0.85475 0.78827,-1.54287 1.76743,-1.54287 l 0,0 15.49383,0"/><path style="fill:#ffaaa5;fill-opacity:1;fill-rule:evenodd;stroke:#000;stroke-width:1.27590215;stroke-linecap:butt;stroke-linejoin:miter;stroke-miterlimit:4;stroke-dasharray:none;stroke-opacity:1" id="path15431" d="m 328.89679,901.55155 -9.90246,0 c -0.97916,0 -1.76743,-0.68812 -1.76743,-1.54287 l 0,-10.12745"/><path style="fill:none;fill-opacity:0;fill-rule:evenodd;stroke:#000;stroke-width:1.29458833;stroke-linecap:butt;stroke-linejoin:miter;stroke-miterlimit:4;stroke-dasharray:none;stroke-opacity:1" id="path15433" d="m 316.76385,889.69006 12.3124,12.31518"/></g></g><g id="g15435" transform="matrix(0.07276915,0,0,0.07276915,289.68756,936.24858)"><path id="path15437" d="m 121.15881,928.37909 0,33.21008 c 0,1.16584 -1.07516,2.1044 -2.41067,2.1044 l -34.639163,0 c -1.335516,0 -2.410679,-0.93856 -2.410679,-2.1044 l 0,-47.02337 c 0,-1.16584 1.075163,-2.1044 2.410679,-2.1044 l 0,0 21.132733,0" style="fill:#a8e6cf;fill-opacity:1;fill-rule:evenodd;stroke:#000;stroke-width:1.76574767;stroke-linecap:butt;stroke-linejoin:miter;stroke-miterlimit:4;stroke-dasharray:none;stroke-opacity:1"/><path id="path15439" d="m 121.15881,928.37909 -13.50642,0 c -1.33552,0 -2.41068,-0.93856 -2.41068,-2.1044 l 0,-13.81329" style="fill:#a8e6cf;fill-opacity:1;fill-rule:evenodd;stroke:#000;stroke-width:1.74026072;stroke-linecap:butt;stroke-linejoin:miter;stroke-miterlimit:4;stroke-dasharray:none;stroke-opacity:1"/><path id="path15441" d="m 104.61014,912.20066 16.79344,16.79723" style="fill:none;fill-opacity:0;fill-rule:evenodd;stroke:#000;stroke-width:1.76574767;stroke-linecap:butt;stroke-linejoin:miter;stroke-miterlimit:4;stroke-dasharray:none;stroke-opacity:1"/></g><g id="g15443" transform="matrix(0.09925316,0,0,0.09925316,256.18654,898.85596)"><path style="fill:#dcedc1;fill-opacity:1;fill-rule:evenodd;stroke:#000;stroke-width:1.29458833;stroke-linecap:butt;stroke-linejoin:miter;stroke-miterlimit:4;stroke-dasharray:none;stroke-opacity:1" id="path15445" d="m 207.74321,980.28578 0,24.34852 c 0,0.8548 -0.78827,1.5429 -1.76742,1.5429 l -25.3963,0 c -0.97916,0 -1.76743,-0.6881 -1.76743,-1.5429 l 0,-34.47597 c 0,-0.85475 0.78827,-1.54287 1.76743,-1.54287 l 0,0 15.49383,0"/><path style="fill:#dcedc1;fill-opacity:1;fill-rule:evenodd;stroke:#000;stroke-width:1.27590215;stroke-linecap:butt;stroke-linejoin:miter;stroke-miterlimit:4;stroke-dasharray:none;stroke-opacity:1" id="path15447" d="m 207.74321,980.28578 -9.90246,0 c -0.97916,0 -1.76743,-0.68812 -1.76743,-1.54287 l 0,-10.12745"/><path style="fill:none;fill-opacity:0;fill-rule:evenodd;stroke:#000;stroke-width:1.29458833;stroke-linecap:butt;stroke-linejoin:miter;stroke-miterlimit:4;stroke-dasharray:none;stroke-opacity:1" id="path15449" d="m 195.61027,968.42429 12.3124,12.31518"/></g><g id="g15451" transform="translate(21.556567,94.487038)"><g id="g15453" transform="matrix(0.09925316,0,0,0.09925316,223.58416,813.8183)"><path style="fill:#ffd3b6;fill-opacity:1;fill-rule:evenodd;stroke:#000;stroke-width:1.29458833;stroke-linecap:butt;stroke-linejoin:miter;stroke-miterlimit:4;stroke-dasharray:none;stroke-opacity:1" id="path15455" d="m 283.945,884.88403 0,24.34855 c 0,0.85475 -0.78827,1.54287 -1.76742,1.54287 l -25.3963,0 c -0.97916,0 -1.76743,-0.68812 -1.76743,-1.54287 l 0,-34.476 c 0,-0.85475 0.78827,-1.54287 1.76743,-1.54287 l 0,0 15.49383,0"/><path style="fill:#ffd3b6;fill-opacity:1;fill-rule:evenodd;stroke:#000;stroke-width:1.27590215;stroke-linecap:butt;stroke-linejoin:miter;stroke-miterlimit:4;stroke-dasharray:none;stroke-opacity:1" id="path15457" d="m 283.945,884.88403 -9.90246,0 c -0.97916,0 -1.76743,-0.68812 -1.76743,-1.54287 l 0,-10.12745"/><path style="fill:none;fill-opacity:0;fill-rule:evenodd;stroke:#000;stroke-width:1.29458833;stroke-linecap:butt;stroke-linejoin:miter;stroke-miterlimit:4;stroke-dasharray:none;stroke-opacity:1" id="path15459" d="m 271.81206,873.02254 12.3124,12.31518"/></g></g><g id="g15465" transform="translate(-7.5423792,78.378626)"><g id="g15467" transform="matrix(0.09925316,0,0,0.09925316,269.61005,835.97437)"><path id="path15469" d="m 328.89679,901.55155 0,24.34855 c 0,0.85475 -0.78827,1.54287 -1.76742,1.54287 l -25.3963,0 c -0.97916,0 -1.76743,-0.68812 -1.76743,-1.54287 l 0,-34.476 c 0,-0.85475 0.78827,-1.54287 1.76743,-1.54287 l 0,0 15.49383,0" style="fill:#ffaaa5;fill-opacity:1;fill-rule:evenodd;stroke:#000;stroke-width:1.29458833;stroke-linecap:butt;stroke-linejoin:miter;stroke-miterlimit:4;stroke-dasharray:none;stroke-opacity:1"/><path id="path15471" d="m 328.89679,901.55155 -9.90246,0 c -0.97916,0 -1.76743,-0.68812 -1.76743,-1.54287 l 0,-10.12745" style="fill:#ffaaa5;fill-opacity:1;fill-rule:evenodd;stroke:#000;stroke-width:1.27590215;stroke-linecap:butt;stroke-linejoin:miter;stroke-miterlimit:4;stroke-dasharray:none;stroke-opacity:1"/><path id="path15473" d="m 316.76385,889.69006 12.3124,12.31518" style="fill:none;fill-opacity:0;fill-rule:evenodd;stroke:#000;stroke-width:1.29458833;stroke-linecap:butt;stroke-linejoin:miter;stroke-miterlimit:4;stroke-dasharray:none;stroke-opacity:1"/></g></g><g id="g15475" transform="matrix(0.07276915,0,0,0.07276915,307.27684,941.87358)"><path id="path15477" d="m 121.15881,928.37909 0,33.21008 c 0,1.16584 -1.07516,2.1044 -2.41067,2.1044 l -34.639163,0 c -1.335516,0 -2.410679,-0.93856 -2.410679,-2.1044 l 0,-47.02337 c 0,-1.16584 1.075163,-2.1044 2.410679,-2.1044 l 0,0 21.132733,0" style="fill:#a8e6cf;fill-opacity:1;fill-rule:evenodd;stroke:#000;stroke-width:1.76574767;stroke-linecap:butt;stroke-linejoin:miter;stroke-miterlimit:4;stroke-dasharray:none;stroke-opacity:1"/><path id="path15479" d="m 121.15881,928.37909 -13.50642,0 c -1.33552,0 -2.41068,-0.93856 -2.41068,-2.1044 l 0,-13.81329" style="fill:#a8e6cf;fill-opacity:1;fill-rule:evenodd;stroke:#000;stroke-width:1.74026072;stroke-linecap:butt;stroke-linejoin:miter;stroke-miterlimit:4;stroke-dasharray:none;stroke-opacity:1"/><path id="path15481" d="m 104.61014,912.20066 16.79344,16.79723" style="fill:none;fill-opacity:0;fill-rule:evenodd;stroke:#000;stroke-width:1.76574767;stroke-linecap:butt;stroke-linejoin:miter;stroke-miterlimit:4;stroke-dasharray:none;stroke-opacity:1"/></g><g id="g15483" transform="matrix(0.09925316,0,0,0.09925316,288.06154,894.2131)"><path style="fill:#dcedc1;fill-opacity:1;fill-rule:evenodd;stroke:#000;stroke-width:1.29458833;stroke-linecap:butt;stroke-linejoin:miter;stroke-miterlimit:4;stroke-dasharray:none;stroke-opacity:1" id="path15485" d="m 207.74321,980.28578 0,24.34852 c 0,0.8548 -0.78827,1.5429 -1.76742,1.5429 l -25.3963,0 c -0.97916,0 -1.76743,-0.6881 -1.76743,-1.5429 l 0,-34.47597 c 0,-0.85475 0.78827,-1.54287 1.76743,-1.54287 l 0,0 15.49383,0"/><path style="fill:#dcedc1;fill-opacity:1;fill-rule:evenodd;stroke:#000;stroke-width:1.27590215;stroke-linecap:butt;stroke-linejoin:miter;stroke-miterlimit:4;stroke-dasharray:none;stroke-opacity:1" id="path15487" d="m 207.74321,980.28578 -9.90246,0 c -0.97916,0 -1.76743,-0.68812 -1.76743,-1.54287 l 0,-10.12745"/><path style="fill:none;fill-opacity:0;fill-rule:evenodd;stroke:#000;stroke-width:1.29458833;stroke-linecap:butt;stroke-linejoin:miter;stroke-miterlimit:4;stroke-dasharray:none;stroke-opacity:1" id="path15489" d="m 195.61027,968.42429 12.3124,12.31518"/></g><g id="g15491" transform="translate(53.431567,89.844181)"><g id="g15493" transform="matrix(0.09925316,0,0,0.09925316,223.58416,813.8183)"><path style="fill:#ffd3b6;fill-opacity:1;fill-rule:evenodd;stroke:#000;stroke-width:1.29458833;stroke-linecap:butt;stroke-linejoin:miter;stroke-miterlimit:4;stroke-dasharray:none;stroke-opacity:1" id="path15495" d="m 283.945,884.88403 0,24.34855 c 0,0.85475 -0.78827,1.54287 -1.76742,1.54287 l -25.3963,0 c -0.97916,0 -1.76743,-0.68812 -1.76743,-1.54287 l 0,-34.476 c 0,-0.85475 0.78827,-1.54287 1.76743,-1.54287 l 0,0 15.49383,0"/><path style="fill:#ffd3b6;fill-opacity:1;fill-rule:evenodd;stroke:#000;stroke-width:1.27590215;stroke-linecap:butt;stroke-linejoin:miter;stroke-miterlimit:4;stroke-dasharray:none;stroke-opacity:1" id="path15497" d="m 283.945,884.88403 -9.90246,0 c -0.97916,0 -1.76743,-0.68812 -1.76743,-1.54287 l 0,-10.12745"/><path style="fill:none;fill-opacity:0;fill-rule:evenodd;stroke:#000;stroke-width:1.29458833;stroke-linecap:butt;stroke-linejoin:miter;stroke-miterlimit:4;stroke-dasharray:none;stroke-opacity:1" id="path15499" d="m 271.81206,873.02254 12.3124,12.31518"/></g></g><g id="g15505" transform="translate(-0.39952217,65.967912)"><g id="g15507" transform="matrix(0.09925316,0,0,0.09925316,269.61005,835.97437)"><path id="path15509" d="m 328.89679,901.55155 0,24.34855 c 0,0.85475 -0.78827,1.54287 -1.76742,1.54287 l -25.3963,0 c -0.97916,0 -1.76743,-0.68812 -1.76743,-1.54287 l 0,-34.476 c 0,-0.85475 0.78827,-1.54287 1.76743,-1.54287 l 0,0 15.49383,0" style="fill:#ffaaa5;fill-opacity:1;fill-rule:evenodd;stroke:#000;stroke-width:1.29458833;stroke-linecap:butt;stroke-linejoin:miter;stroke-miterlimit:4;stroke-dasharray:none;stroke-opacity:1"/><path id="path15511" d="m 328.89679,901.55155 -9.90246,0 c -0.97916,0 -1.76743,-0.68812 -1.76743,-1.54287 l 0,-10.12745" style="fill:#ffaaa5;fill-opacity:1;fill-rule:evenodd;stroke:#000;stroke-width:1.27590215;stroke-linecap:butt;stroke-linejoin:miter;stroke-miterlimit:4;stroke-dasharray:none;stroke-opacity:1"/><path id="path15513" d="m 316.76385,889.69006 12.3124,12.31518" style="fill:none;fill-opacity:0;fill-rule:evenodd;stroke:#000;stroke-width:1.29458833;stroke-linecap:butt;stroke-linejoin:miter;stroke-miterlimit:4;stroke-dasharray:none;stroke-opacity:1"/></g></g><g id="g15515" transform="translate(-22.810237,90.789341)"><g id="g15517" transform="matrix(0.09925316,0,0,0.09925316,269.61005,835.97437)"><path id="path15519" d="m 328.89679,901.55155 0,24.34855 c 0,0.85475 -0.78827,1.54287 -1.76742,1.54287 l -25.3963,0 c -0.97916,0 -1.76743,-0.68812 -1.76743,-1.54287 l 0,-34.476 c 0,-0.85475 0.78827,-1.54287 1.76743,-1.54287 l 0,0 15.49383,0" style="fill:#ffaaa5;fill-opacity:1;fill-rule:evenodd;stroke:#000;stroke-width:1.29458833;stroke-linecap:butt;stroke-linejoin:miter;stroke-miterlimit:4;stroke-dasharray:none;stroke-opacity:1"/><path id="path15521" d="m 328.89679,901.55155 -9.90246,0 c -0.97916,0 -1.76743,-0.68812 -1.76743,-1.54287 l 0,-10.12745" style="fill:#ffaaa5;fill-opacity:1;fill-rule:evenodd;stroke:#000;stroke-width:1.27590215;stroke-linecap:butt;stroke-linejoin:miter;stroke-miterlimit:4;stroke-dasharray:none;stroke-opacity:1"/><path id="path15523" d="m 316.76385,889.69006 12.3124,12.31518" style="fill:none;fill-opacity:0;fill-rule:evenodd;stroke:#000;stroke-width:1.29458833;stroke-linecap:butt;stroke-linejoin:miter;stroke-miterlimit:4;stroke-dasharray:none;stroke-opacity:1"/></g></g></g></svg>