<svg xmlns="http://www.w3.org/2000/svg" xmlns:svg="http://www.w3.org/2000/svg" id="svg11270" width="500" height="300" version="1.1" viewBox="0 0 500 300"><defs id="defs11272"><marker id="TriangleOutL" orient="auto" refX="0" refY="0" style="overflow:visible"><path id="path4486" d="M 5.77,0.0 L -2.88,5.0 L -2.88,-5.0 L 5.77,0.0 z" transform="scale(0.8)" style="fill-rule:evenodd;stroke:#000;stroke-width:1pt"/></marker><marker style="overflow:visible" id="marker14848" orient="auto" refX="0" refY="0"><path style="fill-rule:evenodd;stroke:#000;stroke-width:1pt;stroke-opacity:1;fill:#000;fill-opacity:1" id="path14850" d="M 5.77,0.0 L -2.88,5.0 L -2.88,-5.0 L 5.77,0.0 z" transform="scale(0.8)"/></marker></defs><metadata id="metadata11275"/><g id="layer1" transform="translate(0,-752.36216)"><rect style="fill:none;fill-opacity:1;stroke:#000;stroke-width:2;stroke-opacity:1;stroke-miterlimit:4;stroke-dasharray:none" id="rect11278" width="187.079" height="104.871" x="156.46" y="842.878"/><text style="font-style:normal;font-weight:400;font-size:40px;line-height:125%;font-family:sans-serif;letter-spacing:0;word-spacing:0;fill:#000;fill-opacity:1;stroke:none;stroke-width:1px;stroke-linecap:butt;stroke-linejoin:miter;stroke-opacity:1" id="text11280" x="240.857" y="959.659" xml:space="preserve"><tspan id="tspan11282" x="240.857" y="959.659" style="font-size:12.5px">Keywhiz (server)</tspan></text><g id="g12163" transform="translate(4.9313677,5.1176189)"><g id="g12154" transform="matrix(0.73316725,0,0,0.73316725,105.93536,190.35157)"><path style="fill:#a8e6cf;fill-opacity:1;fill-rule:evenodd;stroke:#000;stroke-width:1.76574767;stroke-linecap:butt;stroke-linejoin:miter;stroke-miterlimit:4;stroke-dasharray:none;stroke-opacity:1" id="path4161" d="m 121.15881,928.37909 0,33.21008 c 0,1.16584 -1.07516,2.1044 -2.41067,2.1044 l -34.639163,0 c -1.335516,0 -2.410679,-0.93856 -2.410679,-2.1044 l 0,-47.02337 c 0,-1.16584 1.075163,-2.1044 2.410679,-2.1044 l 0,0 21.132733,0"/><path style="fill:#a8e6cf;fill-opacity:1;fill-rule:evenodd;stroke:#000;stroke-width:1.74026072;stroke-linecap:butt;stroke-linejoin:miter;stroke-miterlimit:4;stroke-dasharray:none;stroke-opacity:1" id="rect3349" d="m 121.15881,928.37909 -13.50642,0 c -1.33552,0 -2.41068,-0.93856 -2.41068,-2.1044 l 0,-13.81329"/><path style="fill:none;fill-opacity:0;fill-rule:evenodd;stroke:#000;stroke-width:1.76574767;stroke-linecap:butt;stroke-linejoin:miter;stroke-miterlimit:4;stroke-dasharray:none;stroke-opacity:1" id="path4151" d="m 104.61014,912.20066 16.79344,16.79723"/></g><text id="text12159" x="168.956" y="880.188" xml:space="preserve" style="font-style:normal;font-weight:400;font-size:25px;line-height:125%;font-family:sans-serif;letter-spacing:0;word-spacing:0;fill:#000;fill-opacity:1;stroke:none;stroke-width:1px;stroke-linecap:butt;stroke-linejoin:miter;stroke-opacity:1"><tspan style="font-size:7.5px" id="tspan12161" x="168.956" y="880.188">config</tspan></text></g><g id="g15210"><path style="fill:#dcedc1;fill-opacity:1;fill-rule:evenodd;stroke:#000;stroke-width:1.29458833;stroke-linecap:butt;stroke-linejoin:miter;stroke-miterlimit:4;stroke-dasharray:none;stroke-opacity:1" id="path12175" d="m 238.99321,910.64292 0,24.34855 c 0,0.85475 -0.78827,1.54287 -1.76742,1.54287 l -25.3963,0 c -0.97916,0 -1.76743,-0.68812 -1.76743,-1.54287 l 0,-34.476 c 0,-0.85475 0.78827,-1.54287 1.76743,-1.54287 l 0,0 15.49383,0"/><path style="fill:#dcedc1;fill-opacity:1;fill-rule:evenodd;stroke:#000;stroke-width:1.27590215;stroke-linecap:butt;stroke-linejoin:miter;stroke-miterlimit:4;stroke-dasharray:none;stroke-opacity:1" id="path12177" d="m 238.99321,910.64292 -9.90246,0 c -0.97916,0 -1.76743,-0.68812 -1.76743,-1.54287 l 0,-10.12745"/><path style="fill:none;fill-opacity:0;fill-rule:evenodd;stroke:#000;stroke-width:1.29458833;stroke-linecap:butt;stroke-linejoin:miter;stroke-miterlimit:4;stroke-dasharray:none;stroke-opacity:1" id="path12179" d="m 226.86027,898.78143 12.3124,12.31518"/><text style="font-style:normal;font-weight:400;font-size:25px;line-height:125%;font-family:sans-serif;letter-spacing:0;word-spacing:0;fill:#000;fill-opacity:1;stroke:none;stroke-width:1px;stroke-linecap:butt;stroke-linejoin:miter;stroke-opacity:1" id="text12181" x="224.114" y="919.822" xml:space="preserve"><tspan id="tspan12183" x="224.114" y="919.822" style="font-size:7.5px;text-align:center;text-anchor:middle">GPG</tspan></text></g><g id="g15217"><path id="path12194" d="m 283.945,884.88403 0,24.34855 c 0,0.85475 -0.78827,1.54287 -1.76742,1.54287 l -25.3963,0 c -0.97916,0 -1.76743,-0.68812 -1.76743,-1.54287 l 0,-34.476 c 0,-0.85475 0.78827,-1.54287 1.76743,-1.54287 l 0,0 15.49383,0" style="fill:#ffd3b6;fill-opacity:1;fill-rule:evenodd;stroke:#000;stroke-width:1.29458833;stroke-linecap:butt;stroke-linejoin:miter;stroke-miterlimit:4;stroke-dasharray:none;stroke-opacity:1"/><path id="path12196" d="m 283.945,884.88403 -9.90246,0 c -0.97916,0 -1.76743,-0.68812 -1.76743,-1.54287 l 0,-10.12745" style="fill:#ffd3b6;fill-opacity:1;fill-rule:evenodd;stroke:#000;stroke-width:1.27590215;stroke-linecap:butt;stroke-linejoin:miter;stroke-miterlimit:4;stroke-dasharray:none;stroke-opacity:1"/><path id="path12198" d="m 271.81206,873.02254 12.3124,12.31518" style="fill:none;fill-opacity:0;fill-rule:evenodd;stroke:#000;stroke-width:1.29458833;stroke-linecap:butt;stroke-linejoin:miter;stroke-miterlimit:4;stroke-dasharray:none;stroke-opacity:1"/><text id="text12200" x="269.066" y="894.063" xml:space="preserve" style="font-style:normal;font-weight:400;font-size:25px;line-height:125%;font-family:sans-serif;letter-spacing:0;word-spacing:0;fill:#000;fill-opacity:1;stroke:none;stroke-width:1px;stroke-linecap:butt;stroke-linejoin:miter;stroke-opacity:1"><tspan style="font-size:7.5px;text-align:center;text-anchor:middle" id="tspan12202" x="269.066" y="894.063">TLS</tspan></text></g><g id="g15224"><path style="fill:#ffaaa5;fill-opacity:1;fill-rule:evenodd;stroke:#000;stroke-width:1.29458833;stroke-linecap:butt;stroke-linejoin:miter;stroke-miterlimit:4;stroke-dasharray:none;stroke-opacity:1" id="path12204" d="m 328.89679,901.55155 0,24.34855 c 0,0.85475 -0.78827,1.54287 -1.76742,1.54287 l -25.3963,0 c -0.97916,0 -1.76743,-0.68812 -1.76743,-1.54287 l 0,-34.476 c 0,-0.85475 0.78827,-1.54287 1.76743,-1.54287 l 0,0 15.49383,0"/><path style="fill:#ffaaa5;fill-opacity:1;fill-rule:evenodd;stroke:#000;stroke-width:1.27590215;stroke-linecap:butt;stroke-linejoin:miter;stroke-miterlimit:4;stroke-dasharray:none;stroke-opacity:1" id="path12206" d="m 328.89679,901.55155 -9.90246,0 c -0.97916,0 -1.76743,-0.68812 -1.76743,-1.54287 l 0,-10.12745"/><path style="fill:none;fill-opacity:0;fill-rule:evenodd;stroke:#000;stroke-width:1.29458833;stroke-linecap:butt;stroke-linejoin:miter;stroke-miterlimit:4;stroke-dasharray:none;stroke-opacity:1" id="path12208" d="m 316.76385,889.69006 12.3124,12.31518"/><text style="font-style:normal;font-weight:400;font-size:25px;line-height:125%;font-family:sans-serif;letter-spacing:0;word-spacing:0;fill:#000;fill-opacity:1;stroke:none;stroke-width:1px;stroke-linecap:butt;stroke-linejoin:miter;stroke-opacity:1" id="text12210" x="314.017" y="910.73" xml:space="preserve"><tspan id="tspan12212" x="314.017" y="910.73" style="font-size:7.5px;text-align:center;text-anchor:middle">etc...</tspan></text></g></g></svg>