<svg xmlns="http://www.w3.org/2000/svg" xmlns:svg="http://www.w3.org/2000/svg" id="svg11270" width="500" height="300" version="1.1" viewBox="0 0 500 300"><defs id="defs11272"><marker id="marker16070" orient="auto" refX="0" refY="0" style="overflow:visible"><path id="path16072" d="M 5.77,0.0 L -2.88,5.0 L -2.88,-5.0 L 5.77,0.0 z" transform="scale(0.8)" style="fill-rule:evenodd;stroke:#000;stroke-width:1pt;stroke-opacity:1;fill:#000;fill-opacity:1"/></marker><marker id="TriangleOutL" orient="auto" refX="0" refY="0" style="overflow:visible"><path id="path6163" d="M 5.77,0.0 L -2.88,5.0 L -2.88,-5.0 L 5.77,0.0 z" transform="scale(0.8)" style="fill-rule:evenodd;stroke:#000;stroke-width:1pt"/></marker><marker style="overflow:visible" id="marker14848" orient="auto" refX="0" refY="0"><path style="fill-rule:evenodd;stroke:#000;stroke-width:1pt;stroke-opacity:1;fill:#000;fill-opacity:1" id="path14850" d="M 5.77,0.0 L -2.88,5.0 L -2.88,-5.0 L 5.77,0.0 z" transform="scale(0.8)"/></marker></defs><metadata id="metadata11275"/><g id="layer1" transform="translate(0,-752.36216)"><rect style="fill:none;fill-opacity:1;stroke:#000;stroke-width:2;stroke-opacity:1;stroke-miterlimit:4;stroke-dasharray:none" id="rect11278" width="187.079" height="104.871" x="156.46" y="842.878"/><text style="font-style:normal;font-weight:400;font-size:40px;line-height:125%;font-family:sans-serif;letter-spacing:0;word-spacing:0;fill:#000;fill-opacity:1;stroke:none;stroke-width:1px;stroke-linecap:butt;stroke-linejoin:miter;stroke-opacity:1" id="text11280" x="240.857" y="959.659" xml:space="preserve"><tspan id="tspan11282" x="240.857" y="959.659" style="font-size:12.5px">Keywhiz (server)</tspan></text><text id="text13608" x="89.334" y="931.374" xml:space="preserve" style="font-style:normal;font-weight:400;font-size:40px;line-height:125%;font-family:sans-serif;letter-spacing:0;word-spacing:0;fill:#000;fill-opacity:1;stroke:none;stroke-width:1px;stroke-linecap:butt;stroke-linejoin:miter;stroke-opacity:1"><tspan style="font-size:7.5px" id="tspan13610" x="89.334" y="931.374">Adds a secret</tspan></text><path id="path14846" d="m 82.327409,918.76948 c 19.192921,7.57614 53.538091,-4.2932 66.165001,-17.42515" style="fill:none;fill-rule:evenodd;stroke:#000;stroke-width:1px;stroke-linecap:butt;stroke-linejoin:miter;stroke-opacity:1;marker-end:url(#marker14848)"/><g id="g15998" transform="translate(-28.284271,-0.50507627)"><ellipse id="path15544" cx="94.244" cy="896.643" rx="10.9" ry="9.746" style="fill:none;fill-opacity:1;stroke:#000;stroke-width:.5077973;stroke-miterlimit:4;stroke-dasharray:none;stroke-opacity:1"/><path id="path15546" d="m 94.196709,906.39512 -0.252538,13.63706 -4.798225,11.11168" style="fill:none;fill-rule:evenodd;stroke:#000;stroke-width:1px;stroke-linecap:butt;stroke-linejoin:miter;stroke-opacity:1"/><path id="path15548" d="m 93.439095,919.77964 6.060915,11.36422" style="fill:none;fill-rule:evenodd;stroke:#000;stroke-width:1px;stroke-linecap:butt;stroke-linejoin:miter;stroke-opacity:1"/><path id="path15550" d="m 103.28808,910.18319 -9.343909,3.53553 -8.838835,-2.77792" style="fill:none;fill-rule:evenodd;stroke:#000;stroke-width:1px;stroke-linecap:butt;stroke-linejoin:miter;stroke-opacity:1"/></g><g id="g16537" transform="matrix(0.44856543,0,0,0.44856543,-66.355315,558.83003)"><path style="fill:#a8e6cf;fill-opacity:1;fill-rule:evenodd;stroke:#000;stroke-width:1.29458833;stroke-linecap:butt;stroke-linejoin:miter;stroke-miterlimit:4;stroke-dasharray:none;stroke-opacity:1" id="path12204" d="m 405.68114,765.2172 0,24.34855 c 0,0.85475 -0.78827,1.54287 -1.76742,1.54287 l -25.3963,0 c -0.97916,0 -1.76743,-0.68812 -1.76743,-1.54287 l 0,-34.476 c 0,-0.85475 0.78827,-1.54287 1.76743,-1.54287 l 0,0 15.49383,0"/><path style="fill:#a8e6cf;fill-opacity:1;fill-rule:evenodd;stroke:#000;stroke-width:1.27590215;stroke-linecap:butt;stroke-linejoin:miter;stroke-miterlimit:4;stroke-dasharray:none;stroke-opacity:1" id="path12206" d="m 405.68114,765.2172 -9.90246,0 c -0.97916,0 -1.76743,-0.68812 -1.76743,-1.54287 l 0,-10.12745"/><path style="fill:none;fill-opacity:0;fill-rule:evenodd;stroke:#000;stroke-width:1.29458833;stroke-linecap:butt;stroke-linejoin:miter;stroke-miterlimit:4;stroke-dasharray:none;stroke-opacity:1" id="path12208" d="m 393.5482,753.35571 12.3124,12.31518"/></g></g></svg>