<svg xmlns="http://www.w3.org/2000/svg" xmlns:svg="http://www.w3.org/2000/svg" id="svg11270" width="500" height="300" version="1.1" viewBox="0 0 500 300"><defs id="defs11272"><marker id="marker30614" orient="auto" refX="0" refY="0" style="overflow:visible"><path id="path30616" d="M 5.77,0.0 L -2.88,5.0 L -2.88,-5.0 L 5.77,0.0 z" transform="scale(0.8)" style="fill-rule:evenodd;stroke:#000;stroke-width:1pt;stroke-opacity:1;fill:#000;fill-opacity:1"/></marker><marker id="TriangleInL" orient="auto" refX="0" refY="0" style="overflow:visible"><path id="path6154" d="M 5.77,0.0 L -2.88,5.0 L -2.88,-5.0 L 5.77,0.0 z" transform="scale(-0.8)" style="fill-rule:evenodd;stroke:#000;stroke-width:1pt;stroke-opacity:1;fill:#000;fill-opacity:1"/></marker><marker id="marker16070" orient="auto" refX="0" refY="0" style="overflow:visible"><path id="path16072" d="M 5.77,0.0 L -2.88,5.0 L -2.88,-5.0 L 5.77,0.0 z" transform="scale(0.8)" style="fill-rule:evenodd;stroke:#000;stroke-width:1pt;stroke-opacity:1;fill:#000;fill-opacity:1"/></marker><marker id="TriangleOutL" orient="auto" refX="0" refY="0" style="overflow:visible"><path id="path6163" d="M 5.77,0.0 L -2.88,5.0 L -2.88,-5.0 L 5.77,0.0 z" transform="scale(0.8)" style="fill-rule:evenodd;stroke:#000;stroke-width:1pt"/></marker></defs><metadata id="metadata11275"/><g id="layer1" transform="translate(0,-752.36216)"><rect style="fill:none;fill-opacity:1;stroke:#000;stroke-width:2;stroke-opacity:1;stroke-miterlimit:4;stroke-dasharray:none" id="rect11278" width="187.079" height="104.871" x="156.46" y="842.878"/><text style="font-style:normal;font-weight:400;font-size:40px;line-height:125%;font-family:sans-serif;letter-spacing:0;word-spacing:0;fill:#000;fill-opacity:1;stroke:none;stroke-width:1px;stroke-linecap:butt;stroke-linejoin:miter;stroke-opacity:1" id="text11280" x="240.857" y="959.659" xml:space="preserve"><tspan id="tspan11282" x="240.857" y="959.659" style="font-size:12.5px">Keywhiz (server)</tspan></text><text id="text13608" x="362.906" y="886.374" xml:space="preserve" style="font-style:normal;font-weight:400;font-size:40px;line-height:125%;font-family:sans-serif;letter-spacing:0;word-spacing:0;fill:#000;fill-opacity:1;stroke:none;stroke-width:1px;stroke-linecap:butt;stroke-linejoin:miter;stroke-opacity:1"><tspan style="font-size:7.5px" id="tspan13610" x="362.906" y="886.374">Encryption</tspan></text><path id="path14846" d="m 82.327409,918.76948 c 19.192921,7.57614 53.538091,-4.2932 66.165001,-17.42515" style="fill:none;fill-rule:evenodd;stroke:#000;stroke-width:1px;stroke-linecap:butt;stroke-linejoin:miter;stroke-opacity:1"/><g id="g15998" transform="translate(-28.284271,-0.50507627)"><ellipse id="path15544" cx="94.244" cy="896.643" rx="10.9" ry="9.746" style="fill:none;fill-opacity:1;stroke:#000;stroke-width:.5077973;stroke-miterlimit:4;stroke-dasharray:none;stroke-opacity:1"/><path id="path15546" d="m 94.196709,906.39512 -0.252538,13.63706 -4.798225,11.11168" style="fill:none;fill-rule:evenodd;stroke:#000;stroke-width:1px;stroke-linecap:butt;stroke-linejoin:miter;stroke-opacity:1"/><path id="path15548" d="m 93.439095,919.77964 6.060915,11.36422" style="fill:none;fill-rule:evenodd;stroke:#000;stroke-width:1px;stroke-linecap:butt;stroke-linejoin:miter;stroke-opacity:1"/><path id="path15550" d="m 103.28808,910.18319 -9.343909,3.53553 -8.838835,-2.77792" style="fill:none;fill-rule:evenodd;stroke:#000;stroke-width:1px;stroke-linecap:butt;stroke-linejoin:miter;stroke-opacity:1"/></g><text id="text16058" x="406.522" y="860.916" xml:space="preserve" style="font-style:normal;font-weight:400;font-size:40px;line-height:125%;font-family:sans-serif;letter-spacing:0;word-spacing:0;fill:#000;fill-opacity:1;stroke:none;stroke-width:1px;stroke-linecap:butt;stroke-linejoin:miter;stroke-opacity:1"><tspan style="font-size:12.5px" id="tspan16060" x="406.522" y="860.916">HSM</tspan></text><path style="fill:none;fill-rule:evenodd;stroke:#000;stroke-width:1px;stroke-linecap:butt;stroke-linejoin:miter;stroke-opacity:1;marker-start:url(#TriangleInL);marker-end:url(#marker30614)" id="path16068" d="m 357.59398,875.33293 c 13.63708,1.01015 16.66753,-1.76783 26.76905,-11.86932"/><g id="g16554" transform="matrix(0.44856543,0,0,0.44856543,192.15198,511.61029)"><path id="path16556" d="m 405.68114,765.2172 0,24.34855 c 0,0.85475 -0.78827,1.54287 -1.76742,1.54287 l -25.3963,0 c -0.97916,0 -1.76743,-0.68812 -1.76743,-1.54287 l 0,-34.476 c 0,-0.85475 0.78827,-1.54287 1.76743,-1.54287 l 0,0 15.49383,0" style="fill:#a8e6cf;fill-opacity:1;fill-rule:evenodd;stroke:#000;stroke-width:1.29458833;stroke-linecap:butt;stroke-linejoin:miter;stroke-miterlimit:4;stroke-dasharray:none;stroke-opacity:1"/><path id="path16558" d="m 405.68114,765.2172 -9.90246,0 c -0.97916,0 -1.76743,-0.68812 -1.76743,-1.54287 l 0,-10.12745" style="fill:#a8e6cf;fill-opacity:1;fill-rule:evenodd;stroke:#000;stroke-width:1.27590215;stroke-linecap:butt;stroke-linejoin:miter;stroke-miterlimit:4;stroke-dasharray:none;stroke-opacity:1"/><path id="path16560" d="m 393.5482,753.35571 12.3124,12.31518" style="fill:none;fill-opacity:0;fill-rule:evenodd;stroke:#000;stroke-width:1.29458833;stroke-linecap:butt;stroke-linejoin:miter;stroke-miterlimit:4;stroke-dasharray:none;stroke-opacity:1"/></g><path style="fill:#000;fill-opacity:1;fill-rule:evenodd;stroke:none;stroke-width:1px;stroke-linecap:butt;stroke-linejoin:miter;stroke-opacity:1" id="path16573" d="m 367.6395,855.97328 c -1.11163,-0.0122 -1.79245,0.93388 -1.78106,2.24183 -0.96284,0.21561 -0.5149,2.72395 -0.4914,3.3935 0.0235,0.66955 1.64289,1.035 2.41069,1.05952 0.7678,0.0245 2.05835,-0.58278 2.05752,-1.36662 -9e-4,-0.78383 0.30244,-2.70332 -0.5066,-3.07096 -0.0229,-1.01524 -0.57752,-2.2451 -1.68915,-2.25727 z m -0.0613,0.76787 c 1.1209,0 0.99801,1.45876 0.99801,1.45876 l -1.99601,0 c 0,0 -0.1229,-1.45876 0.998,-1.45876 z m 0.0922,2.80994 c 0.86832,0.0461 0.56899,1.0268 0.24558,1.05952 l 0.0154,0.59875 -0.72178,0 0,-0.61419 c -0.31279,-0.20732 -0.40756,-1.09014 0.46076,-1.04408 z"/><path id="path16589" d="m 396.76861,844.1764 c -3.45954,-0.038 -5.57834,2.90635 -5.54289,6.97686 -2.99648,0.67101 -1.60243,8.47728 -1.5293,10.561 0.0731,2.08373 5.11288,3.22106 7.50238,3.29737 2.38949,0.0762 6.40584,-1.81369 6.40326,-4.2531 -0.003,-2.43938 0.94123,-8.41308 -1.5766,-9.55722 -0.0713,-3.15956 -1.79732,-6.98704 -5.25685,-7.02491 z m -0.19078,2.38971 c 3.48839,0 3.10594,4.53985 3.10594,4.53985 l -6.21184,0 c 0,0 -0.38248,-4.53985 3.1059,-4.53985 z m 0.28694,8.74489 c 2.70232,0.14347 1.77077,3.19553 0.76428,3.29736 l 0.0479,1.86339 -2.24627,0 0,-1.91144 c -0.97344,-0.64521 -1.26838,-3.39265 1.43395,-3.24931 z" style="fill:#000;fill-opacity:1;fill-rule:evenodd;stroke:none;stroke-width:1px;stroke-linecap:butt;stroke-linejoin:miter;stroke-opacity:1"/></g></svg>