<svg xmlns="http://www.w3.org/2000/svg" xmlns:svg="http://www.w3.org/2000/svg" id="svg11270" width="500" height="300" version="1.1" viewBox="0 0 500 300"><defs id="defs11272"><marker id="marker32260" orient="auto" refX="0" refY="0" style="overflow:visible"><path id="path32262" d="M 5.77,0.0 L -2.88,5.0 L -2.88,-5.0 L 5.77,0.0 z" transform="scale(-0.8)" style="fill-rule:evenodd;stroke:#000;stroke-width:1pt;stroke-opacity:1;fill:#000;fill-opacity:1"/></marker><marker id="TriangleInL" orient="auto" refX="0" refY="0" style="overflow:visible"><path id="path6154" d="M 5.77,0.0 L -2.88,5.0 L -2.88,-5.0 L 5.77,0.0 z" transform="scale(-0.8)" style="fill-rule:evenodd;stroke:#000;stroke-width:1pt;stroke-opacity:1;fill:#000;fill-opacity:1"/></marker><marker id="marker16070" orient="auto" refX="0" refY="0" style="overflow:visible"><path id="path16072" d="M 5.77,0.0 L -2.88,5.0 L -2.88,-5.0 L 5.77,0.0 z" transform="scale(0.8)" style="fill-rule:evenodd;stroke:#000;stroke-width:1pt;stroke-opacity:1;fill:#000;fill-opacity:1"/></marker><marker id="TriangleOutL" orient="auto" refX="0" refY="0" style="overflow:visible"><path id="path6163" d="M 5.77,0.0 L -2.88,5.0 L -2.88,-5.0 L 5.77,0.0 z" transform="scale(0.8)" style="fill-rule:evenodd;stroke:#000;stroke-width:1pt"/></marker><marker id="marker14848" orient="auto" refX="0" refY="0" style="overflow:visible"><path id="path14850" d="M 5.77,0.0 L -2.88,5.0 L -2.88,-5.0 L 5.77,0.0 z" transform="scale(0.8)" style="fill-rule:evenodd;stroke:#000;stroke-width:1pt;stroke-opacity:1;fill:#000;fill-opacity:1"/></marker></defs><metadata id="metadata11275"/><g id="layer1" transform="translate(0,-752.36216)"><rect style="fill:none;fill-opacity:1;stroke:#000;stroke-width:2;stroke-miterlimit:4;stroke-dasharray:none;stroke-opacity:1" id="rect11278-4" width="187.079" height="104.871" x="156.391" y="843.201"/><text style="font-style:normal;font-weight:400;font-size:40px;line-height:125%;font-family:sans-serif;letter-spacing:0;word-spacing:0;fill:#000;fill-opacity:1;stroke:none;stroke-width:1px;stroke-linecap:butt;stroke-linejoin:miter;stroke-opacity:1" id="text11280-6" x="240.788" y="959.982" xml:space="preserve"><tspan id="tspan11282-8" x="240.788" y="959.982" style="font-size:12.5px">Keywhiz (server)</tspan></text><text id="text13608" x="240.788" y="1035.238" xml:space="preserve" style="font-style:normal;font-weight:400;font-size:40px;line-height:125%;font-family:sans-serif;letter-spacing:0;word-spacing:0;fill:#000;fill-opacity:1;stroke:none;stroke-width:1px;stroke-linecap:butt;stroke-linejoin:miter;stroke-opacity:1"><tspan style="font-size:12.5px" id="tspan13610" x="240.788" y="1035.238">Keywhiz (clients)</tspan></text><text id="text16058" x="407.834" y="987.494" xml:space="preserve" style="font-style:normal;font-weight:400;font-size:40px;line-height:125%;font-family:sans-serif;letter-spacing:0;word-spacing:0;fill:#000;fill-opacity:1;stroke:none;stroke-width:1px;stroke-linecap:butt;stroke-linejoin:miter;stroke-opacity:1"><tspan style="font-size:12.5px" id="tspan16060" x="407.834" y="987.494">PKI</tspan></text><path style="fill:none;fill-rule:evenodd;stroke:#000;stroke-width:1px;stroke-linecap:butt;stroke-linejoin:miter;stroke-opacity:1;marker-start:url(#TriangleInL)" id="path16068" d="m 359.94079,963.96909 c 5.55586,10.10152 10.60661,14.89969 22.22336,14.89972"/><path style="fill:#000;fill-opacity:1;fill-rule:evenodd;stroke:#000;stroke-width:.16538435px;stroke-linecap:butt;stroke-linejoin:miter;stroke-opacity:1" id="path16602" d="m 392.12967,980.34166 c -2.10917,-0.0209 -3.35161,1.55581 -3.32029,3.40395 0.0313,1.84813 1.29452,3.61271 3.23663,3.57094 1.94211,-0.0418 3.00731,-1.52448 3.13261,-2.15096 0.50119,0.355 1.16932,0.48033 1.16932,0.48033 l 0,-1.27366 1.00232,0.0833 0.60565,0.66832 0.87699,-0.85632 0.77266,0.75197 0.52232,0 0.85599,-0.96064 0.48032,0.66833 0.91899,0.0627 1.23198,-1.46197 -0.81432,-0.856 -6.51557,0 0,-0.96065 c 0,0 -0.75408,0.43967 -1.19031,0.73067 -0.49888,-0.64874 -0.85611,-1.87943 -2.96529,-1.90031 z m -1.53497,2.44588 a 0.89288693,0.86808454 0 0 1 0.89281,0.86795 0.89288693,0.86808454 0 0 1 -0.89281,0.86826 0.89288693,0.86808454 0 0 1 -0.89282,-0.86826 0.89288693,0.86808454 0 0 1 0.89282,-0.86795 z"/><g id="g17490"><g id="g12154" transform="matrix(0.73316725,0,0,0.73316725,243.12756,227.1074)"><path style="fill:#a8e6cf;fill-opacity:1;fill-rule:evenodd;stroke:#000;stroke-width:1.76574767;stroke-linecap:butt;stroke-linejoin:miter;stroke-miterlimit:4;stroke-dasharray:none;stroke-opacity:1" id="path4161" d="m 121.15881,928.37909 0,33.21008 c 0,1.16584 -1.07516,2.1044 -2.41067,2.1044 l -34.639163,0 c -1.335516,0 -2.410679,-0.93856 -2.410679,-2.1044 l 0,-47.02337 c 0,-1.16584 1.075163,-2.1044 2.410679,-2.1044 l 0,0 21.132733,0"/><path style="fill:#a8e6cf;fill-opacity:1;fill-rule:evenodd;stroke:#000;stroke-width:1.74026072;stroke-linecap:butt;stroke-linejoin:miter;stroke-miterlimit:4;stroke-dasharray:none;stroke-opacity:1" id="rect3349" d="m 121.15881,928.37909 -13.50642,0 c -1.33552,0 -2.41068,-0.93856 -2.41068,-2.1044 l 0,-13.81329"/><path style="fill:none;fill-opacity:0;fill-rule:evenodd;stroke:#000;stroke-width:1.76574767;stroke-linecap:butt;stroke-linejoin:miter;stroke-miterlimit:4;stroke-dasharray:none;stroke-opacity:1" id="path4151" d="m 104.61014,912.20066 16.79344,16.79723"/></g><path style="fill:#000;fill-opacity:1;fill-rule:evenodd;stroke:#000;stroke-width:.16538435px;stroke-linecap:butt;stroke-linejoin:miter;stroke-opacity:1" id="path17482" d="m 313.84284,913.67158 c -2.10917,-0.0209 -3.35161,1.55581 -3.32029,3.40395 0.0313,1.84813 1.29452,3.61271 3.23663,3.57094 1.94211,-0.0418 3.00731,-1.52448 3.13261,-2.15096 0.50119,0.355 1.16932,0.48033 1.16932,0.48033 l 0,-1.27366 1.00232,0.0833 0.60565,0.66832 0.87699,-0.85632 0.77266,0.75197 0.52232,0 0.85599,-0.96064 0.48032,0.66833 0.91899,0.0627 1.23198,-1.46197 -0.81432,-0.856 -6.51557,0 0,-0.96065 c 0,0 -0.75408,0.43967 -1.19031,0.73067 -0.49888,-0.64874 -0.85611,-1.87943 -2.96529,-1.90031 z m -1.53497,2.44588 a 0.89288693,0.86808454 0 0 1 0.89281,0.86795 0.89288693,0.86808454 0 0 1 -0.89281,0.86826 0.89288693,0.86808454 0 0 1 -0.89282,-0.86826 0.89288693,0.86808454 0 0 1 0.89282,-0.86795 z"/></g><g id="g17541"><g id="g17509" transform="matrix(0.19850628,0,0,0.19850628,211.94079,807.41562)"><g id="g17511" transform="matrix(0.73316725,0,0,0.73316725,243.12756,227.1074)"><path id="path17513" d="m 121.15881,928.37909 0,33.21008 c 0,1.16584 -1.07516,2.1044 -2.41067,2.1044 l -34.639163,0 c -1.335516,0 -2.410679,-0.93856 -2.410679,-2.1044 l 0,-47.02337 c 0,-1.16584 1.075163,-2.1044 2.410679,-2.1044 l 0,0 21.132733,0" style="fill:#a8e6cf;fill-opacity:1;fill-rule:evenodd;stroke:#000;stroke-width:1.76574767;stroke-linecap:butt;stroke-linejoin:miter;stroke-miterlimit:4;stroke-dasharray:none;stroke-opacity:1"/><path id="path17515" d="m 121.15881,928.37909 -13.50642,0 c -1.33552,0 -2.41068,-0.93856 -2.41068,-2.1044 l 0,-13.81329" style="fill:#a8e6cf;fill-opacity:1;fill-rule:evenodd;stroke:#000;stroke-width:1.74026072;stroke-linecap:butt;stroke-linejoin:miter;stroke-miterlimit:4;stroke-dasharray:none;stroke-opacity:1"/><path id="path17517" d="m 104.61014,912.20066 16.79344,16.79723" style="fill:none;fill-opacity:0;fill-rule:evenodd;stroke:#000;stroke-width:1.76574767;stroke-linecap:butt;stroke-linejoin:miter;stroke-miterlimit:4;stroke-dasharray:none;stroke-opacity:1"/></g><path id="path17519" d="m 313.84284,913.67158 c -2.10917,-0.0209 -3.35161,1.55581 -3.32029,3.40395 0.0313,1.84813 1.29452,3.61271 3.23663,3.57094 1.94211,-0.0418 3.00731,-1.52448 3.13261,-2.15096 0.50119,0.355 1.16932,0.48033 1.16932,0.48033 l 0,-1.27366 1.00232,0.0833 0.60565,0.66832 0.87699,-0.85632 0.77266,0.75197 0.52232,0 0.85599,-0.96064 0.48032,0.66833 0.91899,0.0627 1.23198,-1.46197 -0.81432,-0.856 -6.51557,0 0,-0.96065 c 0,0 -0.75408,0.43967 -1.19031,0.73067 -0.49888,-0.64874 -0.85611,-1.87943 -2.96529,-1.90031 z m -1.53497,2.44588 a 0.89288693,0.86808454 0 0 1 0.89281,0.86795 0.89288693,0.86808454 0 0 1 -0.89281,0.86826 0.89288693,0.86808454 0 0 1 -0.89282,-0.86826 0.89288693,0.86808454 0 0 1 0.89282,-0.86795 z" style="fill:#000;fill-opacity:1;fill-rule:evenodd;stroke:#000;stroke-width:.16538435px;stroke-linecap:butt;stroke-linejoin:miter;stroke-opacity:1"/></g><rect id="rect17523" width="32.152" height="18.023" x="247.823" y="976.667" style="fill:none;fill-opacity:1;stroke:#000;stroke-width:1;stroke-miterlimit:4;stroke-dasharray:none;stroke-opacity:1"/></g><g id="g17550" transform="translate(-25.892857,24.285714)"><g id="g17552" transform="matrix(0.19850628,0,0,0.19850628,211.94079,807.41562)"><g id="g17554" transform="matrix(0.73316725,0,0,0.73316725,243.12756,227.1074)"><path style="fill:#a8e6cf;fill-opacity:1;fill-rule:evenodd;stroke:#000;stroke-width:1.76574767;stroke-linecap:butt;stroke-linejoin:miter;stroke-miterlimit:4;stroke-dasharray:none;stroke-opacity:1" id="path17556" d="m 121.15881,928.37909 0,33.21008 c 0,1.16584 -1.07516,2.1044 -2.41067,2.1044 l -34.639163,0 c -1.335516,0 -2.410679,-0.93856 -2.410679,-2.1044 l 0,-47.02337 c 0,-1.16584 1.075163,-2.1044 2.410679,-2.1044 l 0,0 21.132733,0"/><path style="fill:#a8e6cf;fill-opacity:1;fill-rule:evenodd;stroke:#000;stroke-width:1.74026072;stroke-linecap:butt;stroke-linejoin:miter;stroke-miterlimit:4;stroke-dasharray:none;stroke-opacity:1" id="path17558" d="m 121.15881,928.37909 -13.50642,0 c -1.33552,0 -2.41068,-0.93856 -2.41068,-2.1044 l 0,-13.81329"/><path style="fill:none;fill-opacity:0;fill-rule:evenodd;stroke:#000;stroke-width:1.76574767;stroke-linecap:butt;stroke-linejoin:miter;stroke-miterlimit:4;stroke-dasharray:none;stroke-opacity:1" id="path17560" d="m 104.61014,912.20066 16.79344,16.79723"/></g><path style="fill:#000;fill-opacity:1;fill-rule:evenodd;stroke:#000;stroke-width:.16538435px;stroke-linecap:butt;stroke-linejoin:miter;stroke-opacity:1" id="path17562" d="m 313.84284,913.67158 c -2.10917,-0.0209 -3.35161,1.55581 -3.32029,3.40395 0.0313,1.84813 1.29452,3.61271 3.23663,3.57094 1.94211,-0.0418 3.00731,-1.52448 3.13261,-2.15096 0.50119,0.355 1.16932,0.48033 1.16932,0.48033 l 0,-1.27366 1.00232,0.0833 0.60565,0.66832 0.87699,-0.85632 0.77266,0.75197 0.52232,0 0.85599,-0.96064 0.48032,0.66833 0.91899,0.0627 1.23198,-1.46197 -0.81432,-0.856 -6.51557,0 0,-0.96065 c 0,0 -0.75408,0.43967 -1.19031,0.73067 -0.49888,-0.64874 -0.85611,-1.87943 -2.96529,-1.90031 z m -1.53497,2.44588 a 0.89288693,0.86808454 0 0 1 0.89281,0.86795 0.89288693,0.86808454 0 0 1 -0.89281,0.86826 0.89288693,0.86808454 0 0 1 -0.89282,-0.86826 0.89288693,0.86808454 0 0 1 0.89282,-0.86795 z"/></g><rect style="fill:none;fill-opacity:1;stroke:#000;stroke-width:1;stroke-miterlimit:4;stroke-dasharray:none;stroke-opacity:1" id="rect17564" width="32.152" height="18.023" x="247.823" y="976.667"/></g><g id="g17566" transform="translate(11.071429,20.714286)"><g id="g17568" transform="matrix(0.19850628,0,0,0.19850628,211.94079,807.41562)"><g id="g17570" transform="matrix(0.73316725,0,0,0.73316725,243.12756,227.1074)"><path style="fill:#a8e6cf;fill-opacity:1;fill-rule:evenodd;stroke:#000;stroke-width:1.76574767;stroke-linecap:butt;stroke-linejoin:miter;stroke-miterlimit:4;stroke-dasharray:none;stroke-opacity:1" id="path17572" d="m 121.15881,928.37909 0,33.21008 c 0,1.16584 -1.07516,2.1044 -2.41067,2.1044 l -34.639163,0 c -1.335516,0 -2.410679,-0.93856 -2.410679,-2.1044 l 0,-47.02337 c 0,-1.16584 1.075163,-2.1044 2.410679,-2.1044 l 0,0 21.132733,0"/><path style="fill:#a8e6cf;fill-opacity:1;fill-rule:evenodd;stroke:#000;stroke-width:1.74026072;stroke-linecap:butt;stroke-linejoin:miter;stroke-miterlimit:4;stroke-dasharray:none;stroke-opacity:1" id="path17574" d="m 121.15881,928.37909 -13.50642,0 c -1.33552,0 -2.41068,-0.93856 -2.41068,-2.1044 l 0,-13.81329"/><path style="fill:none;fill-opacity:0;fill-rule:evenodd;stroke:#000;stroke-width:1.76574767;stroke-linecap:butt;stroke-linejoin:miter;stroke-miterlimit:4;stroke-dasharray:none;stroke-opacity:1" id="path17576" d="m 104.61014,912.20066 16.79344,16.79723"/></g><path style="fill:#000;fill-opacity:1;fill-rule:evenodd;stroke:#000;stroke-width:.16538435px;stroke-linecap:butt;stroke-linejoin:miter;stroke-opacity:1" id="path17578" d="m 313.84284,913.67158 c -2.10917,-0.0209 -3.35161,1.55581 -3.32029,3.40395 0.0313,1.84813 1.29452,3.61271 3.23663,3.57094 1.94211,-0.0418 3.00731,-1.52448 3.13261,-2.15096 0.50119,0.355 1.16932,0.48033 1.16932,0.48033 l 0,-1.27366 1.00232,0.0833 0.60565,0.66832 0.87699,-0.85632 0.77266,0.75197 0.52232,0 0.85599,-0.96064 0.48032,0.66833 0.91899,0.0627 1.23198,-1.46197 -0.81432,-0.856 -6.51557,0 0,-0.96065 c 0,0 -0.75408,0.43967 -1.19031,0.73067 -0.49888,-0.64874 -0.85611,-1.87943 -2.96529,-1.90031 z m -1.53497,2.44588 a 0.89288693,0.86808454 0 0 1 0.89281,0.86795 0.89288693,0.86808454 0 0 1 -0.89281,0.86826 0.89288693,0.86808454 0 0 1 -0.89282,-0.86826 0.89288693,0.86808454 0 0 1 0.89282,-0.86795 z"/></g><rect style="fill:none;fill-opacity:1;stroke:#000;stroke-width:1;stroke-miterlimit:4;stroke-dasharray:none;stroke-opacity:1" id="rect17580" width="32.152" height="18.023" x="247.823" y="976.667"/></g><g id="g17582" transform="translate(46.428572,28.035715)"><g id="g17584" transform="matrix(0.19850628,0,0,0.19850628,211.94079,807.41562)"><g id="g17586" transform="matrix(0.73316725,0,0,0.73316725,243.12756,227.1074)"><path id="path17588" d="m 121.15881,928.37909 0,33.21008 c 0,1.16584 -1.07516,2.1044 -2.41067,2.1044 l -34.639163,0 c -1.335516,0 -2.410679,-0.93856 -2.410679,-2.1044 l 0,-47.02337 c 0,-1.16584 1.075163,-2.1044 2.410679,-2.1044 l 0,0 21.132733,0" style="fill:#a8e6cf;fill-opacity:1;fill-rule:evenodd;stroke:#000;stroke-width:1.76574767;stroke-linecap:butt;stroke-linejoin:miter;stroke-miterlimit:4;stroke-dasharray:none;stroke-opacity:1"/><path id="path17590" d="m 121.15881,928.37909 -13.50642,0 c -1.33552,0 -2.41068,-0.93856 -2.41068,-2.1044 l 0,-13.81329" style="fill:#a8e6cf;fill-opacity:1;fill-rule:evenodd;stroke:#000;stroke-width:1.74026072;stroke-linecap:butt;stroke-linejoin:miter;stroke-miterlimit:4;stroke-dasharray:none;stroke-opacity:1"/><path id="path17592" d="m 104.61014,912.20066 16.79344,16.79723" style="fill:none;fill-opacity:0;fill-rule:evenodd;stroke:#000;stroke-width:1.76574767;stroke-linecap:butt;stroke-linejoin:miter;stroke-miterlimit:4;stroke-dasharray:none;stroke-opacity:1"/></g><path id="path17594" d="m 313.84284,913.67158 c -2.10917,-0.0209 -3.35161,1.55581 -3.32029,3.40395 0.0313,1.84813 1.29452,3.61271 3.23663,3.57094 1.94211,-0.0418 3.00731,-1.52448 3.13261,-2.15096 0.50119,0.355 1.16932,0.48033 1.16932,0.48033 l 0,-1.27366 1.00232,0.0833 0.60565,0.66832 0.87699,-0.85632 0.77266,0.75197 0.52232,0 0.85599,-0.96064 0.48032,0.66833 0.91899,0.0627 1.23198,-1.46197 -0.81432,-0.856 -6.51557,0 0,-0.96065 c 0,0 -0.75408,0.43967 -1.19031,0.73067 -0.49888,-0.64874 -0.85611,-1.87943 -2.96529,-1.90031 z m -1.53497,2.44588 a 0.89288693,0.86808454 0 0 1 0.89281,0.86795 0.89288693,0.86808454 0 0 1 -0.89281,0.86826 0.89288693,0.86808454 0 0 1 -0.89282,-0.86826 0.89288693,0.86808454 0 0 1 0.89282,-0.86795 z" style="fill:#000;fill-opacity:1;fill-rule:evenodd;stroke:#000;stroke-width:.16538435px;stroke-linecap:butt;stroke-linejoin:miter;stroke-opacity:1"/></g><rect id="rect17596" width="32.152" height="18.023" x="247.823" y="976.667" style="fill:none;fill-opacity:1;stroke:#000;stroke-width:1;stroke-miterlimit:4;stroke-dasharray:none;stroke-opacity:1"/></g><g id="g17598" transform="translate(46.964286,2.6785723)"><g id="g17600" transform="matrix(0.19850628,0,0,0.19850628,211.94079,807.41562)"><g id="g17602" transform="matrix(0.73316725,0,0,0.73316725,243.12756,227.1074)"><path style="fill:#a8e6cf;fill-opacity:1;fill-rule:evenodd;stroke:#000;stroke-width:1.76574767;stroke-linecap:butt;stroke-linejoin:miter;stroke-miterlimit:4;stroke-dasharray:none;stroke-opacity:1" id="path17604" d="m 121.15881,928.37909 0,33.21008 c 0,1.16584 -1.07516,2.1044 -2.41067,2.1044 l -34.639163,0 c -1.335516,0 -2.410679,-0.93856 -2.410679,-2.1044 l 0,-47.02337 c 0,-1.16584 1.075163,-2.1044 2.410679,-2.1044 l 0,0 21.132733,0"/><path style="fill:#a8e6cf;fill-opacity:1;fill-rule:evenodd;stroke:#000;stroke-width:1.74026072;stroke-linecap:butt;stroke-linejoin:miter;stroke-miterlimit:4;stroke-dasharray:none;stroke-opacity:1" id="path17606" d="m 121.15881,928.37909 -13.50642,0 c -1.33552,0 -2.41068,-0.93856 -2.41068,-2.1044 l 0,-13.81329"/><path style="fill:none;fill-opacity:0;fill-rule:evenodd;stroke:#000;stroke-width:1.76574767;stroke-linecap:butt;stroke-linejoin:miter;stroke-miterlimit:4;stroke-dasharray:none;stroke-opacity:1" id="path17608" d="m 104.61014,912.20066 16.79344,16.79723"/></g><path style="fill:#000;fill-opacity:1;fill-rule:evenodd;stroke:#000;stroke-width:.16538435px;stroke-linecap:butt;stroke-linejoin:miter;stroke-opacity:1" id="path17610" d="m 313.84284,913.67158 c -2.10917,-0.0209 -3.35161,1.55581 -3.32029,3.40395 0.0313,1.84813 1.29452,3.61271 3.23663,3.57094 1.94211,-0.0418 3.00731,-1.52448 3.13261,-2.15096 0.50119,0.355 1.16932,0.48033 1.16932,0.48033 l 0,-1.27366 1.00232,0.0833 0.60565,0.66832 0.87699,-0.85632 0.77266,0.75197 0.52232,0 0.85599,-0.96064 0.48032,0.66833 0.91899,0.0627 1.23198,-1.46197 -0.81432,-0.856 -6.51557,0 0,-0.96065 c 0,0 -0.75408,0.43967 -1.19031,0.73067 -0.49888,-0.64874 -0.85611,-1.87943 -2.96529,-1.90031 z m -1.53497,2.44588 a 0.89288693,0.86808454 0 0 1 0.89281,0.86795 0.89288693,0.86808454 0 0 1 -0.89281,0.86826 0.89288693,0.86808454 0 0 1 -0.89282,-0.86826 0.89288693,0.86808454 0 0 1 0.89282,-0.86795 z"/></g><rect style="fill:none;fill-opacity:1;stroke:#000;stroke-width:1;stroke-miterlimit:4;stroke-dasharray:none;stroke-opacity:1" id="rect17612" width="32.152" height="18.023" x="247.823" y="976.667"/></g><path id="path17614" d="m 351.35449,1003.8701 c 10.60663,-11.61674 11.61677,-12.87948 30.80966,-14.89978" style="fill:none;fill-rule:evenodd;stroke:#000;stroke-width:1px;stroke-linecap:butt;stroke-linejoin:miter;stroke-opacity:1;marker-start:url(#marker32260)"/></g></svg>