<svg xmlns="http://www.w3.org/2000/svg" xmlns:svg="http://www.w3.org/2000/svg" id="svg11270" width="500" height="300" version="1.1" viewBox="0 0 500 300"><defs id="defs11272"><marker id="marker19849" orient="auto" refX="0" refY="0" style="overflow:visible"><path id="path19851" d="M 8.7185878,4.0337352 L -2.2072895,0.016013256 L 8.7185884,-4.0017078 C 6.9730900,-1.6296469 6.9831476,1.6157441 8.7185878,4.0337352 z" transform="scale(1.1) translate(1,0)" style="fill-rule:evenodd;stroke-width:.625;stroke-linejoin:round;stroke:#000;stroke-opacity:1;fill:#000;fill-opacity:1"/></marker><marker id="Arrow2Lstart" orient="auto" refX="0" refY="0" style="overflow:visible"><path id="path6039" d="M 8.7185878,4.0337352 L -2.2072895,0.016013256 L 8.7185884,-4.0017078 C 6.9730900,-1.6296469 6.9831476,1.6157441 8.7185878,4.0337352 z" transform="scale(1.1) translate(1,0)" style="fill-rule:evenodd;stroke-width:.625;stroke-linejoin:round;stroke:#000;stroke-opacity:1;fill:#000;fill-opacity:1"/></marker><marker style="overflow:visible" id="marker19699" orient="auto" refX="0" refY="0"><path style="fill-rule:evenodd;stroke:#000;stroke-width:1pt;stroke-opacity:1;fill:#000;fill-opacity:1" id="path19701" d="M 5.77,0.0 L -2.88,5.0 L -2.88,-5.0 L 5.77,0.0 z" transform="scale(0.8)"/></marker><marker id="marker19635" orient="auto" refX="0" refY="0" style="overflow:visible"><path id="path19637" d="M 5.77,0.0 L -2.88,5.0 L -2.88,-5.0 L 5.77,0.0 z" transform="scale(0.8)" style="fill-rule:evenodd;stroke:#000;stroke-width:1pt;stroke-opacity:1;fill:#000;fill-opacity:1"/></marker><marker id="marker16070" orient="auto" refX="0" refY="0" style="overflow:visible"><path id="path16072" d="M 5.77,0.0 L -2.88,5.0 L -2.88,-5.0 L 5.77,0.0 z" transform="scale(0.8)" style="fill-rule:evenodd;stroke:#000;stroke-width:1pt;stroke-opacity:1;fill:#000;fill-opacity:1"/></marker><marker id="TriangleOutL" orient="auto" refX="0" refY="0" style="overflow:visible"><path id="path6163" d="M 5.77,0.0 L -2.88,5.0 L -2.88,-5.0 L 5.77,0.0 z" transform="scale(0.8)" style="fill-rule:evenodd;stroke:#000;stroke-width:1pt"/></marker><marker id="marker14848" orient="auto" refX="0" refY="0" style="overflow:visible"><path id="path14850" d="M 5.77,0.0 L -2.88,5.0 L -2.88,-5.0 L 5.77,0.0 z" transform="scale(0.8)" style="fill-rule:evenodd;stroke:#000;stroke-width:1pt;stroke-opacity:1;fill:#000;fill-opacity:1"/></marker><marker style="overflow:visible" id="marker16070-2" orient="auto" refX="0" refY="0"><path style="fill-rule:evenodd;stroke:#000;stroke-width:1pt;stroke-opacity:1;fill:#000;fill-opacity:1" id="path16072-6" d="M 5.77,0.0 L -2.88,5.0 L -2.88,-5.0 L 5.77,0.0 z" transform="scale(0.8)"/></marker><marker style="overflow:visible" id="TriangleOutL-6" orient="auto" refX="0" refY="0"><path style="fill-rule:evenodd;stroke:#000;stroke-width:1pt" id="path6163-8" d="M 5.77,0.0 L -2.88,5.0 L -2.88,-5.0 L 5.77,0.0 z" transform="scale(0.8)"/></marker><marker id="marker14848-1" orient="auto" refX="0" refY="0" style="overflow:visible"><path id="path14850-5" d="M 5.77,0.0 L -2.88,5.0 L -2.88,-5.0 L 5.77,0.0 z" transform="scale(0.8)" style="fill-rule:evenodd;stroke:#000;stroke-width:1pt;stroke-opacity:1;fill:#000;fill-opacity:1"/></marker><marker style="overflow:visible" id="TriangleOutL-2" orient="auto" refX="0" refY="0"><path style="fill-rule:evenodd;stroke:#000;stroke-width:1pt;stroke-opacity:1;fill:#000;fill-opacity:1" id="path6163-9" d="M 5.77,0.0 L -2.88,5.0 L -2.88,-5.0 L 5.77,0.0 z" transform="scale(0.8)"/></marker><marker style="overflow:visible" id="marker19849-4" orient="auto" refX="0" refY="0"><path style="fill-rule:evenodd;stroke-width:.625;stroke-linejoin:round;stroke:#000;stroke-opacity:1;fill:#000;fill-opacity:1" id="path19851-3" d="M 8.7185878,4.0337352 L -2.2072895,0.016013256 L 8.7185884,-4.0017078 C 6.9730900,-1.6296469 6.9831476,1.6157441 8.7185878,4.0337352 z" transform="scale(1.1) translate(1,0)"/></marker><marker style="overflow:visible" id="Arrow2Lstart-5" orient="auto" refX="0" refY="0"><path style="fill-rule:evenodd;stroke-width:.625;stroke-linejoin:round;stroke:#000;stroke-opacity:1;fill:#000;fill-opacity:1" id="path6039-9" d="M 8.7185878,4.0337352 L -2.2072895,0.016013256 L 8.7185884,-4.0017078 C 6.9730900,-1.6296469 6.9831476,1.6157441 8.7185878,4.0337352 z" transform="scale(1.1) translate(1,0)"/></marker><marker id="marker19699-8" orient="auto" refX="0" refY="0" style="overflow:visible"><path id="path19701-1" d="M 5.77,0.0 L -2.88,5.0 L -2.88,-5.0 L 5.77,0.0 z" transform="scale(0.8)" style="fill-rule:evenodd;stroke:#000;stroke-width:1pt;stroke-opacity:1;fill:#000;fill-opacity:1"/></marker><marker style="overflow:visible" id="marker19635-9" orient="auto" refX="0" refY="0"><path style="fill-rule:evenodd;stroke:#000;stroke-width:1pt;stroke-opacity:1;fill:#000;fill-opacity:1" id="path19637-2" d="M 5.77,0.0 L -2.88,5.0 L -2.88,-5.0 L 5.77,0.0 z" transform="scale(0.8)"/></marker><marker style="overflow:visible" id="marker16070-21" orient="auto" refX="0" refY="0"><path style="fill-rule:evenodd;stroke:#000;stroke-width:1pt;stroke-opacity:1;fill:#000;fill-opacity:1" id="path16072-79" d="M 5.77,0.0 L -2.88,5.0 L -2.88,-5.0 L 5.77,0.0 z" transform="scale(0.8)"/></marker><marker style="overflow:visible" id="TriangleOutL-5" orient="auto" refX="0" refY="0"><path style="fill-rule:evenodd;stroke:#000;stroke-width:1pt" id="path6163-0" d="M 5.77,0.0 L -2.88,5.0 L -2.88,-5.0 L 5.77,0.0 z" transform="scale(0.8)"/></marker><marker style="overflow:visible" id="marker14848-9" orient="auto" refX="0" refY="0"><path style="fill-rule:evenodd;stroke:#000;stroke-width:1pt;stroke-opacity:1;fill:#000;fill-opacity:1" id="path14850-33" d="M 5.77,0.0 L -2.88,5.0 L -2.88,-5.0 L 5.77,0.0 z" transform="scale(0.8)"/></marker><marker id="marker16070-2-6" orient="auto" refX="0" refY="0" style="overflow:visible"><path id="path16072-6-1" d="M 5.77,0.0 L -2.88,5.0 L -2.88,-5.0 L 5.77,0.0 z" transform="scale(0.8)" style="fill-rule:evenodd;stroke:#000;stroke-width:1pt;stroke-opacity:1;fill:#000;fill-opacity:1"/></marker><marker id="TriangleOutL-6-2" orient="auto" refX="0" refY="0" style="overflow:visible"><path id="path6163-8-59" d="M 5.77,0.0 L -2.88,5.0 L -2.88,-5.0 L 5.77,0.0 z" transform="scale(0.8)" style="fill-rule:evenodd;stroke:#000;stroke-width:1pt"/></marker><marker id="TriangleInL" orient="auto" refX="0" refY="0" style="overflow:visible"><path id="path6154" d="M 5.77,0.0 L -2.88,5.0 L -2.88,-5.0 L 5.77,0.0 z" transform="scale(-0.8)" style="fill-rule:evenodd;stroke:#000;stroke-width:1pt;stroke-opacity:1;fill:#000;fill-opacity:1"/></marker><marker id="marker19849-2" orient="auto" refX="0" refY="0" style="overflow:visible"><path id="path19851-8" d="M 8.7185878,4.0337352 L -2.2072895,0.016013256 L 8.7185884,-4.0017078 C 6.9730900,-1.6296469 6.9831476,1.6157441 8.7185878,4.0337352 z" transform="scale(1.1) translate(1,0)" style="fill-rule:evenodd;stroke-width:.625;stroke-linejoin:round;stroke:#000;stroke-opacity:1;fill:#000;fill-opacity:1"/></marker><marker id="Arrow2Lstart-3" orient="auto" refX="0" refY="0" style="overflow:visible"><path id="path6039-8" d="M 8.7185878,4.0337352 L -2.2072895,0.016013256 L 8.7185884,-4.0017078 C 6.9730900,-1.6296469 6.9831476,1.6157441 8.7185878,4.0337352 z" transform="scale(1.1) translate(1,0)" style="fill-rule:evenodd;stroke-width:.625;stroke-linejoin:round;stroke:#000;stroke-opacity:1;fill:#000;fill-opacity:1"/></marker><marker style="overflow:visible" id="marker19699-6" orient="auto" refX="0" refY="0"><path style="fill-rule:evenodd;stroke:#000;stroke-width:1pt;stroke-opacity:1;fill:#000;fill-opacity:1" id="path19701-6" d="M 5.77,0.0 L -2.88,5.0 L -2.88,-5.0 L 5.77,0.0 z" transform="scale(0.8)"/></marker><marker id="marker19635-6" orient="auto" refX="0" refY="0" style="overflow:visible"><path id="path19637-8" d="M 5.77,0.0 L -2.88,5.0 L -2.88,-5.0 L 5.77,0.0 z" transform="scale(0.8)" style="fill-rule:evenodd;stroke:#000;stroke-width:1pt;stroke-opacity:1;fill:#000;fill-opacity:1"/></marker><marker id="marker16070-8" orient="auto" refX="0" refY="0" style="overflow:visible"><path id="path16072-7" d="M 5.77,0.0 L -2.88,5.0 L -2.88,-5.0 L 5.77,0.0 z" transform="scale(0.8)" style="fill-rule:evenodd;stroke:#000;stroke-width:1pt;stroke-opacity:1;fill:#000;fill-opacity:1"/></marker><marker id="TriangleOutL-0" orient="auto" refX="0" refY="0" style="overflow:visible"><path id="path6163-6" d="M 5.77,0.0 L -2.88,5.0 L -2.88,-5.0 L 5.77,0.0 z" transform="scale(0.8)" style="fill-rule:evenodd;stroke:#000;stroke-width:1pt"/></marker><marker id="marker14848-13" orient="auto" refX="0" refY="0" style="overflow:visible"><path id="path14850-3" d="M 5.77,0.0 L -2.88,5.0 L -2.88,-5.0 L 5.77,0.0 z" transform="scale(0.8)" style="fill-rule:evenodd;stroke:#000;stroke-width:1pt;stroke-opacity:1;fill:#000;fill-opacity:1"/></marker><marker style="overflow:visible" id="marker16070-2-9" orient="auto" refX="0" refY="0"><path style="fill-rule:evenodd;stroke:#000;stroke-width:1pt;stroke-opacity:1;fill:#000;fill-opacity:1" id="path16072-6-9" d="M 5.77,0.0 L -2.88,5.0 L -2.88,-5.0 L 5.77,0.0 z" transform="scale(0.8)"/></marker><marker style="overflow:visible" id="TriangleOutL-6-4" orient="auto" refX="0" refY="0"><path style="fill-rule:evenodd;stroke:#000;stroke-width:1pt" id="path6163-8-5" d="M 5.77,0.0 L -2.88,5.0 L -2.88,-5.0 L 5.77,0.0 z" transform="scale(0.8)"/></marker></defs><metadata id="metadata11275"/><g id="layer1" transform="translate(0,-752.36216)"><rect style="fill:none;fill-opacity:1;stroke:#000;stroke-width:1;stroke-miterlimit:4;stroke-dasharray:none;stroke-opacity:1" id="rect11278-4" width="187.079" height="104.871" x="156.391" y="843.201"/><text style="font-style:normal;font-weight:400;font-size:40px;line-height:125%;font-family:sans-serif;letter-spacing:0;word-spacing:0;fill:#000;fill-opacity:1;stroke:none;stroke-width:1px;stroke-linecap:butt;stroke-linejoin:miter;stroke-opacity:1" id="text11280-6" x="240.788" y="959.982" xml:space="preserve"><tspan id="tspan11282-8" x="240.788" y="959.982" style="font-size:12.5px">Keywhiz (server)</tspan></text><text id="text16058-9" x="406.68" y="861.355" xml:space="preserve" style="font-style:normal;font-weight:400;font-size:40px;line-height:125%;font-family:sans-serif;letter-spacing:0;word-spacing:0;fill:#000;fill-opacity:1;stroke:none;stroke-width:1px;stroke-linecap:butt;stroke-linejoin:miter;stroke-opacity:1"><tspan style="font-size:12.5px" id="tspan16060-7" x="406.68" y="861.355">HSM</tspan></text><path style="fill:none;fill-rule:evenodd;stroke:#000;stroke-width:1px;stroke-linecap:butt;stroke-linejoin:miter;stroke-opacity:1" id="path16068-4" d="m 357.75211,875.77145 c 13.63708,1.01015 16.66753,-1.76783 26.76905,-11.86932"/><text style="font-style:normal;font-weight:400;font-size:40px;line-height:125%;font-family:sans-serif;letter-spacing:0;word-spacing:0;fill:#000;fill-opacity:1;stroke:none;stroke-width:1px;stroke-linecap:butt;stroke-linejoin:miter;stroke-opacity:1" id="text16548" x="223.843" y="795.442" xml:space="preserve"><tspan id="tspan16550" x="223.843" y="795.442" style="font-size:12.5px">Database</tspan></text><path id="path16552" d="m 250.67595,802.03032 c -0.50506,13.13198 1.51524,20.45553 14.14214,28.53678" style="fill:none;fill-rule:evenodd;stroke:#000;stroke-width:1px;stroke-linecap:butt;stroke-linejoin:miter;stroke-opacity:1"/><path id="path16589" d="m 396.92674,844.61492 c -3.45954,-0.038 -5.57834,2.90635 -5.54289,6.97686 -2.99648,0.67101 -1.60243,8.47728 -1.5293,10.561 0.0731,2.08373 5.11288,3.22106 7.50238,3.29737 2.38949,0.0762 6.40584,-1.81369 6.40326,-4.2531 -0.003,-2.43938 0.94123,-8.41308 -1.5766,-9.55722 -0.0713,-3.15956 -1.79732,-6.98704 -5.25685,-7.02491 z m -0.19078,2.38971 c 3.48839,0 3.10594,4.53985 3.10594,4.53985 l -6.21184,0 c 0,0 -0.38248,-4.53985 3.1059,-4.53985 z m 0.28694,8.74489 c 2.70232,0.14347 1.77077,3.19553 0.76428,3.29736 l 0.0479,1.86339 -2.24627,0 0,-1.91144 c -0.97344,-0.64521 -1.26838,-3.39265 1.43395,-3.24931 z" style="fill:#000;fill-opacity:1;fill-rule:evenodd;stroke:none;stroke-width:1px;stroke-linecap:butt;stroke-linejoin:miter;stroke-opacity:1"/><rect style="fill:none;fill-opacity:1;stroke:#000;stroke-width:2;stroke-miterlimit:4;stroke-dasharray:none;stroke-opacity:1" id="rect11278" width="187.079" height="104.871" x="156.719" y="843.418"/><rect id="rect13038" width="16.266" height="9.118" x="169.394" y="994.175" style="fill:none;fill-opacity:1;stroke:#000;stroke-width:1;stroke-miterlimit:4;stroke-dasharray:none;stroke-opacity:1"/><rect style="fill:none;fill-opacity:1;stroke:#000;stroke-width:1;stroke-miterlimit:4;stroke-dasharray:none;stroke-opacity:1" id="rect13580" width="16.266" height="9.118" x="190.608" y="1001.751"/><rect id="rect13582" width="16.266" height="9.118" x="197.679" y="989.125" style="fill:none;fill-opacity:1;stroke:#000;stroke-width:1;stroke-miterlimit:4;stroke-dasharray:none;stroke-opacity:1"/><rect style="fill:none;fill-opacity:1;stroke:#000;stroke-width:1;stroke-miterlimit:4;stroke-dasharray:none;stroke-opacity:1" id="rect13584" width="16.266" height="9.118" x="212.326" y="1006.802"/><rect id="rect13586" width="16.266" height="9.118" x="219.902" y="992.155" style="fill:none;fill-opacity:1;stroke:#000;stroke-width:1;stroke-miterlimit:4;stroke-dasharray:none;stroke-opacity:1"/><rect style="fill:none;fill-opacity:1;stroke:#000;stroke-width:1;stroke-miterlimit:4;stroke-dasharray:none;stroke-opacity:1" id="rect13588" width="16.266" height="9.118" x="174.95" y="1013.873"/><rect style="fill:none;fill-opacity:1;stroke:#000;stroke-width:1;stroke-miterlimit:4;stroke-dasharray:none;stroke-opacity:1" id="rect13590" width="16.266" height="9.118" x="269.4" y="993.165"/><rect id="rect13592" width="16.266" height="9.118" x="290.613" y="1000.741" style="fill:none;fill-opacity:1;stroke:#000;stroke-width:1;stroke-miterlimit:4;stroke-dasharray:none;stroke-opacity:1"/><rect style="fill:none;fill-opacity:1;stroke:#000;stroke-width:1;stroke-miterlimit:4;stroke-dasharray:none;stroke-opacity:1" id="rect13594" width="16.266" height="9.118" x="297.684" y="988.114"/><rect id="rect13596" width="16.266" height="9.118" x="312.331" y="1005.792" style="fill:none;fill-opacity:1;stroke:#000;stroke-width:1;stroke-miterlimit:4;stroke-dasharray:none;stroke-opacity:1"/><rect style="fill:none;fill-opacity:1;stroke:#000;stroke-width:1;stroke-miterlimit:4;stroke-dasharray:none;stroke-opacity:1" id="rect13598" width="16.266" height="9.118" x="319.907" y="991.145"/><rect id="rect13600" width="16.266" height="9.118" x="274.955" y="1012.863" style="fill:none;fill-opacity:1;stroke:#000;stroke-width:1;stroke-miterlimit:4;stroke-dasharray:none;stroke-opacity:1"/><text id="text13608" x="241.116" y="1035.455" xml:space="preserve" style="font-style:normal;font-weight:400;font-size:40px;line-height:125%;font-family:sans-serif;letter-spacing:0;word-spacing:0;fill:#000;fill-opacity:1;stroke:none;stroke-width:1px;stroke-linecap:butt;stroke-linejoin:miter;stroke-opacity:1"><tspan style="font-size:12.5px" id="tspan13610" x="241.116" y="1035.455">Keywhiz (clients)</tspan></text><path style="fill:none;fill-rule:evenodd;stroke:#000;stroke-width:1px;stroke-linecap:butt;stroke-linejoin:miter;stroke-opacity:1;marker-end:url(#TriangleOutL-2)" id="path13612" d="m 226.53282,952.39171 c 7.57616,11.61675 2.52538,20.203 -6.06091,29.79947"/><path id="path14846" d="m 226.53282,952.39171 c 7.57616,11.61675 24.74874,23.73853 39.90103,29.79947" style="fill:none;fill-rule:evenodd;stroke:#000;stroke-width:1px;stroke-linecap:butt;stroke-linejoin:miter;stroke-opacity:1;marker-end:url(#marker14848-1)"/><g id="g15233" transform="matrix(0.07276915,0,0,0.07276915,165.39264,930.44902)"><path style="fill:#a8e6cf;fill-opacity:1;fill-rule:evenodd;stroke:#000;stroke-width:1.76574767;stroke-linecap:butt;stroke-linejoin:miter;stroke-miterlimit:4;stroke-dasharray:none;stroke-opacity:1" id="path15235" d="m 121.15881,928.37909 0,33.21008 c 0,1.16584 -1.07516,2.1044 -2.41067,2.1044 l -34.639163,0 c -1.335516,0 -2.410679,-0.93856 -2.410679,-2.1044 l 0,-47.02337 c 0,-1.16584 1.075163,-2.1044 2.410679,-2.1044 l 0,0 21.132733,0"/><path style="fill:#a8e6cf;fill-opacity:1;fill-rule:evenodd;stroke:#000;stroke-width:1.74026072;stroke-linecap:butt;stroke-linejoin:miter;stroke-miterlimit:4;stroke-dasharray:none;stroke-opacity:1" id="path15237" d="m 121.15881,928.37909 -13.50642,0 c -1.33552,0 -2.41068,-0.93856 -2.41068,-2.1044 l 0,-13.81329"/><path style="fill:none;fill-opacity:0;fill-rule:evenodd;stroke:#000;stroke-width:1.76574767;stroke-linecap:butt;stroke-linejoin:miter;stroke-miterlimit:4;stroke-dasharray:none;stroke-opacity:1" id="path15239" d="m 104.61014,912.20066 16.79344,16.79723"/></g><g id="g15321" transform="matrix(0.07276915,0,0,0.07276915,192.92981,925.58766)"><path id="path15323" d="m 121.15881,928.37909 0,33.21008 c 0,1.16584 -1.07516,2.1044 -2.41067,2.1044 l -34.639163,0 c -1.335516,0 -2.410679,-0.93856 -2.410679,-2.1044 l 0,-47.02337 c 0,-1.16584 1.075163,-2.1044 2.410679,-2.1044 l 0,0 21.132733,0" style="fill:#a8e6cf;fill-opacity:1;fill-rule:evenodd;stroke:#000;stroke-width:1.76574767;stroke-linecap:butt;stroke-linejoin:miter;stroke-miterlimit:4;stroke-dasharray:none;stroke-opacity:1"/><path id="path15325" d="m 121.15881,928.37909 -13.50642,0 c -1.33552,0 -2.41068,-0.93856 -2.41068,-2.1044 l 0,-13.81329" style="fill:#a8e6cf;fill-opacity:1;fill-rule:evenodd;stroke:#000;stroke-width:1.74026072;stroke-linecap:butt;stroke-linejoin:miter;stroke-miterlimit:4;stroke-dasharray:none;stroke-opacity:1"/><path id="path15327" d="m 104.61014,912.20066 16.79344,16.79723" style="fill:none;fill-opacity:0;fill-rule:evenodd;stroke:#000;stroke-width:1.76574767;stroke-linecap:butt;stroke-linejoin:miter;stroke-miterlimit:4;stroke-dasharray:none;stroke-opacity:1"/></g><g id="g15361" transform="matrix(0.07276915,0,0,0.07276915,207.61292,943.07593)"><path id="path15363" d="m 121.15881,928.37909 0,33.21008 c 0,1.16584 -1.07516,2.1044 -2.41067,2.1044 l -34.639163,0 c -1.335516,0 -2.410679,-0.93856 -2.410679,-2.1044 l 0,-47.02337 c 0,-1.16584 1.075163,-2.1044 2.410679,-2.1044 l 0,0 21.132733,0" style="fill:#a8e6cf;fill-opacity:1;fill-rule:evenodd;stroke:#000;stroke-width:1.76574767;stroke-linecap:butt;stroke-linejoin:miter;stroke-miterlimit:4;stroke-dasharray:none;stroke-opacity:1"/><path id="path15365" d="m 121.15881,928.37909 -13.50642,0 c -1.33552,0 -2.41068,-0.93856 -2.41068,-2.1044 l 0,-13.81329" style="fill:#a8e6cf;fill-opacity:1;fill-rule:evenodd;stroke:#000;stroke-width:1.74026072;stroke-linecap:butt;stroke-linejoin:miter;stroke-miterlimit:4;stroke-dasharray:none;stroke-opacity:1"/><path id="path15367" d="m 104.61014,912.20066 16.79344,16.79723" style="fill:none;fill-opacity:0;fill-rule:evenodd;stroke:#000;stroke-width:1.76574767;stroke-linecap:butt;stroke-linejoin:miter;stroke-miterlimit:4;stroke-dasharray:none;stroke-opacity:1"/></g><g id="g15369" transform="matrix(0.07276915,0,0,0.07276915,215.32835,928.30245)"><path id="path15371" d="m 121.15881,928.37909 0,33.21008 c 0,1.16584 -1.07516,2.1044 -2.41067,2.1044 l -34.639163,0 c -1.335516,0 -2.410679,-0.93856 -2.410679,-2.1044 l 0,-47.02337 c 0,-1.16584 1.075163,-2.1044 2.410679,-2.1044 l 0,0 21.132733,0" style="fill:#a8e6cf;fill-opacity:1;fill-rule:evenodd;stroke:#000;stroke-width:1.76574767;stroke-linecap:butt;stroke-linejoin:miter;stroke-miterlimit:4;stroke-dasharray:none;stroke-opacity:1"/><path id="path15373" d="m 121.15881,928.37909 -13.50642,0 c -1.33552,0 -2.41068,-0.93856 -2.41068,-2.1044 l 0,-13.81329" style="fill:#a8e6cf;fill-opacity:1;fill-rule:evenodd;stroke:#000;stroke-width:1.74026072;stroke-linecap:butt;stroke-linejoin:miter;stroke-miterlimit:4;stroke-dasharray:none;stroke-opacity:1"/><path id="path15375" d="m 104.61014,912.20066 16.79344,16.79723" style="fill:none;fill-opacity:0;fill-rule:evenodd;stroke:#000;stroke-width:1.76574767;stroke-linecap:butt;stroke-linejoin:miter;stroke-miterlimit:4;stroke-dasharray:none;stroke-opacity:1"/></g><g id="g15395" transform="matrix(0.07276915,0,0,0.07276915,315.39265,927.23474)"><path id="path15397" d="m 121.15881,928.37909 0,33.21008 c 0,1.16584 -1.07516,2.1044 -2.41067,2.1044 l -34.639163,0 c -1.335516,0 -2.410679,-0.93856 -2.410679,-2.1044 l 0,-47.02337 c 0,-1.16584 1.075163,-2.1044 2.410679,-2.1044 l 0,0 21.132733,0" style="fill:#a8e6cf;fill-opacity:1;fill-rule:evenodd;stroke:#000;stroke-width:1.76574767;stroke-linecap:butt;stroke-linejoin:miter;stroke-miterlimit:4;stroke-dasharray:none;stroke-opacity:1"/><path id="path15399" d="m 121.15881,928.37909 -13.50642,0 c -1.33552,0 -2.41068,-0.93856 -2.41068,-2.1044 l 0,-13.81329" style="fill:#a8e6cf;fill-opacity:1;fill-rule:evenodd;stroke:#000;stroke-width:1.74026072;stroke-linecap:butt;stroke-linejoin:miter;stroke-miterlimit:4;stroke-dasharray:none;stroke-opacity:1"/><path id="path15401" d="m 104.61014,912.20066 16.79344,16.79723" style="fill:none;fill-opacity:0;fill-rule:evenodd;stroke:#000;stroke-width:1.76574767;stroke-linecap:butt;stroke-linejoin:miter;stroke-miterlimit:4;stroke-dasharray:none;stroke-opacity:1"/></g><g id="g15435" transform="matrix(0.07276915,0,0,0.07276915,286.3748,936.78831)"><path style="fill:#a8e6cf;fill-opacity:1;fill-rule:evenodd;stroke:#000;stroke-width:1.76574767;stroke-linecap:butt;stroke-linejoin:miter;stroke-miterlimit:4;stroke-dasharray:none;stroke-opacity:1" id="path15437" d="m 121.15881,928.37909 0,33.21008 c 0,1.16584 -1.07516,2.1044 -2.41067,2.1044 l -34.639163,0 c -1.335516,0 -2.410679,-0.93856 -2.410679,-2.1044 l 0,-47.02337 c 0,-1.16584 1.075163,-2.1044 2.410679,-2.1044 l 0,0 21.132733,0"/><path style="fill:#a8e6cf;fill-opacity:1;fill-rule:evenodd;stroke:#000;stroke-width:1.74026072;stroke-linecap:butt;stroke-linejoin:miter;stroke-miterlimit:4;stroke-dasharray:none;stroke-opacity:1" id="path15439" d="m 121.15881,928.37909 -13.50642,0 c -1.33552,0 -2.41068,-0.93856 -2.41068,-2.1044 l 0,-13.81329"/><path style="fill:none;fill-opacity:0;fill-rule:evenodd;stroke:#000;stroke-width:1.76574767;stroke-linecap:butt;stroke-linejoin:miter;stroke-miterlimit:4;stroke-dasharray:none;stroke-opacity:1" id="path15441" d="m 104.61014,912.20066 16.79344,16.79723"/></g><g id="g15475" transform="matrix(0.07276915,0,0,0.07276915,307.53551,942.41331)"><path style="fill:#a8e6cf;fill-opacity:1;fill-rule:evenodd;stroke:#000;stroke-width:1.76574767;stroke-linecap:butt;stroke-linejoin:miter;stroke-miterlimit:4;stroke-dasharray:none;stroke-opacity:1" id="path15477" d="m 121.15881,928.37909 0,33.21008 c 0,1.16584 -1.07516,2.1044 -2.41067,2.1044 l -34.639163,0 c -1.335516,0 -2.410679,-0.93856 -2.410679,-2.1044 l 0,-47.02337 c 0,-1.16584 1.075163,-2.1044 2.410679,-2.1044 l 0,0 21.132733,0"/><path style="fill:#a8e6cf;fill-opacity:1;fill-rule:evenodd;stroke:#000;stroke-width:1.74026072;stroke-linecap:butt;stroke-linejoin:miter;stroke-miterlimit:4;stroke-dasharray:none;stroke-opacity:1" id="path15479" d="m 121.15881,928.37909 -13.50642,0 c -1.33552,0 -2.41068,-0.93856 -2.41068,-2.1044 l 0,-13.81329"/><path style="fill:none;fill-opacity:0;fill-rule:evenodd;stroke:#000;stroke-width:1.76574767;stroke-linecap:butt;stroke-linejoin:miter;stroke-miterlimit:4;stroke-dasharray:none;stroke-opacity:1" id="path15481" d="m 104.61014,912.20066 16.79344,16.79723"/></g></g></svg>